<svg width="336" height="312" viewBox="0 0 336 312" fill="none" xmlns="http://www.w3.org/2000/svg">
<path d="M334.999 157C334.999 242.604 265.603 312 179.999 312C94.3948 312 24.9989 242.604 24.9989 157C24.9989 71.3959 94.3948 1.99998 179.999 1.99998C265.603 1.99998 334.999 71.3959 334.999 157Z" fill="#0E0840"/>
<path d="M334.999 157C334.999 242.604 265.603 312 179.999 312C94.3948 312 24.9989 242.604 24.9989 157C24.9989 71.3959 94.3948 1.99998 179.999 1.99998C265.603 1.99998 334.999 71.3959 334.999 157Z" fill="#0E0840"/>
<path d="M331.499 125.5C347.499 268.5 285.603 115 199.999 115C114.395 115 129.499 141.5 40.4989 95.5C55.9989 34 130.568 -5.63925e-05 177.499 -3.05176e-05C217.499 -8.46386e-06 307.999 25.5 331.499 125.5Z" fill="url(#paint0_linear)"/>
<path d="M331.499 125.5C347.499 268.5 285.603 115 199.999 115C114.395 115 129.499 141.5 40.4989 95.5C55.9989 34 130.568 -5.63925e-05 177.499 -3.05176e-05C217.499 -8.46386e-06 307.999 25.5 331.499 125.5Z" fill="url(#paint1_linear)"/>
<path d="M138.999 109.5C129.038 148.478 204.582 200.496 166.5 235C128.418 269.504 97.5039 251.082 62.9999 213C27.9993 178 18.9992 160.5 27.9993 130.5C66.0813 95.9962 94.6415 131.5 138.999 109.5Z" fill="#332D64"/>
<path d="M138.999 109.5C129.038 148.478 204.582 200.496 166.5 235C128.418 269.504 97.5039 251.082 62.9999 213C27.9993 178 18.9992 160.5 27.9993 130.5C66.0813 95.9962 94.6415 131.5 138.999 109.5Z" fill="#332D64"/>
<path d="M145.081 114.5C135.12 153.478 209.202 205.496 171.12 240C133.038 274.504 102.123 256.082 67.6195 218C32.6189 183 23.6188 165.5 32.6188 135.5C70.7008 100.996 100.723 136.5 145.081 114.5Z" fill="#332D64"/>
<path d="M145.081 114.5C135.12 153.478 209.202 205.496 171.12 240C133.038 274.504 102.123 256.082 67.6195 218C32.6189 183 23.6188 165.5 32.6188 135.5C70.7008 100.996 100.723 136.5 145.081 114.5Z" fill="#332D64"/>
<path d="M132.461 105.173C122.499 144.15 196.581 196.169 158.499 230.673C120.417 265.177 89.5033 246.755 54.9993 208.673C19.9988 173.673 21 156.5 28.4998 123.5C66.5818 88.9961 88.103 127.173 132.461 105.173Z" fill="#332D64"/>
<path d="M132.461 105.173C122.499 144.15 196.581 196.169 158.499 230.673C120.417 265.177 89.5033 246.755 54.9993 208.673C19.9988 173.673 21 156.5 28.4998 123.5C66.5818 88.9961 88.103 127.173 132.461 105.173Z" fill="#332D64"/>
<path d="M334.499 155.5C334.499 241.104 348.603 53.5 262.999 53.5C177.395 53.5 127.499 144.5 38.4989 98.5C53.9989 39.5 115.999 -1.52588e-05 177.999 0C263.603 2.1068e-05 334.499 69.8959 334.499 155.5Z" fill="url(#paint2_linear)"/>
<path d="M334.499 155.5C334.499 241.104 348.603 53.5 262.999 53.5C177.395 53.5 127.499 144.5 38.4989 98.5C53.9989 39.5 115.999 -1.52588e-05 177.999 0C263.603 2.1068e-05 334.499 69.8959 334.499 155.5Z" fill="url(#paint3_linear)"/>
<path d="M334.999 164C334.999 249.604 265.603 310.5 179.999 310.5C94.3948 310.5 24.9989 238.5 24.9989 164C118.499 204 84.9989 207 179.999 178C242.499 137.5 334.999 78.396 334.999 164Z" fill="url(#paint4_linear)"/>
<path d="M333.089 182.695C320 256.924 262.604 311.924 177 311.924C67.4097 308.653 23.9995 220.653 23.9995 159.924C23.9995 74.3199 129.485 182.695 215.089 182.695C300.693 182.695 333.089 164.695 333.089 182.695Z" fill="url(#paint5_linear)"/>
<path d="M312.999 241.814C273.51 294.557 228.573 312 185.453 312C86.0486 312 56.9989 244.306 56.9989 223.541C56.9989 152.438 89.9989 192.5 168.499 221C248.747 239.273 211.999 229.5 312.999 241.814Z" fill="url(#paint6_linear)"/>
<path d="M169.999 7L170.269 8.45982L170.999 9L170.269 9.54018L169.999 11L169.729 9.54018L168.999 9L169.729 8.45982L169.999 7Z" fill="url(#paint7_linear)" fill-opacity="0.5"/>
<path d="M130.999 83L131.269 84.4598L131.999 85L131.269 85.5402L130.999 87L130.729 85.5402L129.999 85L130.729 84.4598L130.999 83Z" fill="url(#paint8_linear)" fill-opacity="0.5"/>
<path d="M185.999 131L186.269 132.46L186.999 133L186.269 133.54L185.999 135L185.729 133.54L184.999 133L185.729 132.46L185.999 131Z" fill="url(#paint9_linear)" fill-opacity="0.5"/>
<path d="M195.999 93L196.269 94.4598L196.999 95L196.269 95.5402L195.999 97L195.729 95.5402L194.999 95L195.729 94.4598L195.999 93Z" fill="url(#paint10_linear)" fill-opacity="0.5"/>
<path d="M286.999 84L287.269 85.4598L287.999 86L287.269 86.5402L286.999 88L286.729 86.5402L285.999 86L286.729 85.4598L286.999 84Z" fill="url(#paint11_linear)" fill-opacity="0.5"/>
<path d="M208.999 115L209.269 116.46L209.999 117L209.269 117.54L208.999 119L208.729 117.54L207.999 117L208.729 116.46L208.999 115Z" fill="url(#paint12_linear)" fill-opacity="0.5"/>
<path d="M258.999 35L259.269 36.4598L259.999 37L259.269 37.5402L258.999 39L258.729 37.5402L257.999 37L258.729 36.4598L258.999 35Z" fill="url(#paint13_linear)" fill-opacity="0.5"/>
<path d="M36.999 113L37.2691 114.46L37.999 115L37.2691 115.54L36.999 117L36.7289 115.54L35.999 115L36.7289 114.46L36.999 113Z" fill="url(#paint14_linear)" fill-opacity="0.5"/>
<path d="M71.999 76L72.2691 77.4598L72.999 78L72.2691 78.5402L71.999 80L71.7289 78.5402L70.999 78L71.7289 77.4598L71.999 76Z" fill="url(#paint15_linear)" fill-opacity="0.5"/>
<path d="M278.999 105L279.269 106.46L279.999 107L279.269 107.54L278.999 109L278.729 107.54L277.999 107L278.729 106.46L278.999 105Z" fill="url(#paint16_linear)" fill-opacity="0.5"/>
<path d="M109.999 32L110.269 33.4598L110.999 34L110.269 34.5402L109.999 36L109.729 34.5402L108.999 34L109.729 33.4598L109.999 32Z" fill="url(#paint17_linear)" fill-opacity="0.5"/>
<circle cx="233.637" cy="48.6381" r="21.5" transform="rotate(-147.901 233.637 48.6381)" fill="url(#paint18_linear)"/>
<g clip-path="url(#clip0)">
<path d="M161.299 76.1253C161.405 76.2114 161.561 76.1953 161.647 76.0894C161.733 75.9835 161.716 75.8278 161.61 75.7418C161.504 75.6557 161.348 75.6718 161.262 75.7777C161.177 75.8836 161.193 76.0392 161.299 76.1253Z" fill="#5B548F"/>
<path d="M161.593 75.763C161.627 75.7904 161.651 75.8272 161.664 75.8687C161.677 75.9102 161.678 75.9546 161.665 75.9962C161.653 76.0379 161.629 76.0749 161.595 76.1026C161.562 76.1303 161.521 76.1475 161.478 76.152C161.435 76.1564 161.391 76.148 161.352 76.1277C161.314 76.1074 161.282 76.0762 161.262 76.038C161.241 75.9997 161.232 75.9563 161.236 75.913C161.24 75.8698 161.256 75.8287 161.284 75.795C161.32 75.7498 161.373 75.721 161.431 75.715C161.489 75.709 161.547 75.7263 161.593 75.763ZM161.627 75.7204C161.585 75.6862 161.534 75.6652 161.479 75.6601C161.425 75.6551 161.371 75.6662 161.323 75.692C161.276 75.7178 161.237 75.7572 161.211 75.8052C161.186 75.8532 161.176 75.9077 161.181 75.9617C161.187 76.0157 161.209 76.0669 161.244 76.1087C161.278 76.1505 161.325 76.1811 161.377 76.1966C161.429 76.2121 161.484 76.2118 161.536 76.1958C161.588 76.1798 161.634 76.1488 161.668 76.1066C161.691 76.0786 161.708 76.0465 161.718 76.0119C161.728 75.9774 161.732 75.9411 161.728 75.9053C161.724 75.8694 161.713 75.8346 161.696 75.8029C161.679 75.7712 161.655 75.7432 161.627 75.7204Z" fill="#5B548F"/>
<path d="M161.744 76.6268C161.85 76.7128 162.005 76.6967 162.091 76.5908C162.177 76.4849 162.161 76.3293 162.054 76.2432C161.948 76.1572 161.792 76.1733 161.707 76.2792C161.621 76.3851 161.637 76.5407 161.744 76.6268Z" fill="#5B548F"/>
<path d="M162.037 76.2645C162.071 76.2919 162.096 76.3287 162.109 76.3702C162.122 76.4117 162.122 76.4561 162.11 76.4977C162.097 76.5393 162.073 76.5763 162.04 76.6041C162.006 76.6318 161.965 76.649 161.922 76.6534C161.879 76.6579 161.835 76.6495 161.797 76.6292C161.758 76.6089 161.727 76.5776 161.706 76.5394C161.685 76.5012 161.676 76.4577 161.68 76.4145C161.684 76.3712 161.701 76.3302 161.728 76.2964C161.765 76.2512 161.818 76.2225 161.876 76.2165C161.934 76.2105 161.992 76.2278 162.037 76.2645ZM162.072 76.2219C162.029 76.1877 161.978 76.1667 161.924 76.1616C161.87 76.1565 161.815 76.1676 161.768 76.1935C161.72 76.2193 161.681 76.2587 161.656 76.3067C161.63 76.3547 161.62 76.4092 161.626 76.4632C161.632 76.5172 161.653 76.5684 161.688 76.6102C161.723 76.652 161.769 76.6826 161.821 76.6981C161.873 76.7136 161.929 76.7133 161.981 76.6973C162.033 76.6813 162.078 76.6502 162.113 76.6081C162.158 76.5516 162.18 76.4792 162.172 76.4067C162.164 76.3343 162.128 76.2678 162.072 76.2219V76.2219Z" fill="#5B548F"/>
<path d="M160.533 78.1203C160.639 78.2064 160.795 78.1903 160.881 78.0844C160.967 77.9785 160.95 77.8229 160.844 77.7368C160.738 77.6508 160.582 77.6668 160.496 77.7728C160.41 77.8787 160.427 78.0343 160.533 78.1203Z" fill="#5B548F"/>
<path d="M160.827 77.7581C160.86 77.7855 160.885 77.8222 160.898 77.8638C160.911 77.9053 160.912 77.9496 160.899 77.9913C160.887 78.0329 160.863 78.0699 160.829 78.0976C160.796 78.1254 160.755 78.1425 160.712 78.147C160.668 78.1515 160.625 78.143 160.586 78.1227C160.548 78.1024 160.516 78.0712 160.495 78.033C160.475 77.9948 160.466 77.9513 160.47 77.9081C160.474 77.8648 160.49 77.8237 160.518 77.79C160.554 77.7448 160.607 77.716 160.665 77.71C160.723 77.7041 160.781 77.7213 160.827 77.7581ZM160.861 77.7155C160.819 77.6812 160.767 77.6602 160.713 77.6552C160.659 77.6501 160.605 77.6612 160.557 77.687C160.509 77.7129 160.471 77.7523 160.445 77.8003C160.42 77.8483 160.41 77.9027 160.415 77.9568C160.421 78.0108 160.443 78.0619 160.477 78.1037C160.512 78.1455 160.559 78.1761 160.611 78.1916C160.663 78.2071 160.718 78.2069 160.77 78.1909C160.822 78.1748 160.868 78.1438 160.902 78.1017C160.948 78.0452 160.969 77.9727 160.962 77.9003C160.954 77.8279 160.918 77.7614 160.861 77.7155V77.7155Z" fill="#5B548F"/>
<path d="M160.866 76.8347C160.972 76.9208 161.128 76.9047 161.214 76.7988C161.3 76.6929 161.283 76.5373 161.177 76.4512C161.071 76.3652 160.915 76.3812 160.829 76.4872C160.743 76.5931 160.76 76.7487 160.866 76.8347Z" fill="#5B548F"/>
<path d="M161.16 76.4725C161.193 76.4999 161.218 76.5367 161.231 76.5782C161.244 76.6197 161.245 76.6641 161.232 76.7057C161.22 76.7473 161.196 76.7843 161.162 76.812C161.129 76.8398 161.088 76.8569 161.045 76.8614C161.001 76.8659 160.958 76.8574 160.919 76.8371C160.881 76.8169 160.849 76.7856 160.828 76.7474C160.808 76.7092 160.799 76.6657 160.803 76.6225C160.807 76.5792 160.823 76.5381 160.851 76.5044C160.887 76.4592 160.94 76.4305 160.998 76.4245C161.056 76.4185 161.114 76.4357 161.16 76.4725ZM161.194 76.4299C161.152 76.3956 161.1 76.3746 161.046 76.3696C160.992 76.3645 160.938 76.3756 160.89 76.4014C160.842 76.4273 160.803 76.4667 160.778 76.5147C160.753 76.5627 160.743 76.6172 160.748 76.6712C160.754 76.7252 160.776 76.7763 160.81 76.8181C160.845 76.8599 160.892 76.8905 160.944 76.906C160.996 76.9216 161.051 76.9213 161.103 76.9053C161.155 76.8893 161.201 76.8582 161.235 76.8161C161.281 76.7596 161.302 76.6871 161.295 76.6147C161.287 76.5423 161.251 76.4758 161.194 76.4299V76.4299Z" fill="#5B548F"/>
<path d="M161.454 76.1093C161.56 76.1954 161.716 76.1793 161.802 76.0734C161.887 75.9675 161.871 75.8118 161.765 75.7258C161.659 75.6397 161.503 75.6558 161.417 75.7617C161.331 75.8676 161.348 76.0232 161.454 76.1093Z" fill="#5B548F"/>
<path d="M161.748 75.747C161.781 75.7744 161.806 75.8112 161.819 75.8527C161.832 75.8942 161.832 75.9386 161.82 75.9802C161.808 76.0219 161.783 76.0589 161.75 76.0866C161.717 76.1143 161.676 76.1315 161.633 76.136C161.589 76.1404 161.546 76.132 161.507 76.1117C161.469 76.0914 161.437 76.0602 161.416 76.022C161.396 75.9838 161.387 75.9403 161.391 75.897C161.394 75.8538 161.411 75.8127 161.438 75.779C161.475 75.7338 161.528 75.705 161.586 75.699C161.644 75.693 161.702 75.7103 161.748 75.747ZM161.782 75.7044C161.74 75.6702 161.688 75.6492 161.634 75.6441C161.58 75.6391 161.526 75.6502 161.478 75.676C161.43 75.7018 161.391 75.7412 161.366 75.7892C161.341 75.8373 161.33 75.8917 161.336 75.9457C161.342 75.9997 161.364 76.0509 161.398 76.0927C161.433 76.1345 161.48 76.1651 161.532 76.1806C161.584 76.1961 161.639 76.1958 161.691 76.1798C161.743 76.1638 161.789 76.1328 161.823 76.0906C161.869 76.0341 161.89 75.9617 161.883 75.8893C161.875 75.8168 161.839 75.7503 161.782 75.7044V75.7044Z" fill="#5B548F"/>
<path d="M160.98 75.5132C161.074 75.5897 161.213 75.5754 161.289 75.4813C161.365 75.3871 161.351 75.2488 161.256 75.1723C161.162 75.0958 161.024 75.1101 160.947 75.2043C160.871 75.2984 160.886 75.4367 160.98 75.5132Z" fill="#5B548F"/>
<path d="M136.457 97.5655L155.298 74.3166C156.879 72.3668 159.321 71.3062 159.596 71.5292C159.816 71.7074 159.335 74.3678 157.76 76.3115L138.919 99.5605L136.457 97.5655Z" fill="#5B548F"/>
<path d="M159.579 71.5505C159.66 71.616 159.642 72.2454 159.322 73.2678C159.113 73.927 158.631 75.1968 157.74 76.2956L138.916 99.5232L136.495 97.5612L155.319 74.3336C156.24 73.1972 157.363 72.4645 157.95 72.129C158.847 71.6168 159.472 71.4638 159.579 71.5505V71.5505ZM159.614 71.5078C159.31 71.2616 156.854 72.3525 155.277 74.2989L136.418 97.5692L138.923 99.5992L157.781 76.3289C159.324 74.4261 159.872 71.7169 159.614 71.5078Z" fill="#5B548F"/>
<path d="M154.706 74.9893C154.655 74.9479 154.622 74.888 154.615 74.8227C154.608 74.7575 154.627 74.6922 154.669 74.6413C154.71 74.5903 154.77 74.5579 154.835 74.5512C154.9 74.5444 154.966 74.5639 155.017 74.6053L157.499 76.6166C157.55 76.6579 157.582 76.7179 157.589 76.7831C157.596 76.8484 157.577 76.9137 157.536 76.9646C157.494 77.0156 157.434 77.048 157.369 77.0547C157.304 77.0615 157.238 77.042 157.187 77.0006L154.706 74.9893Z" fill="#5B548F"/>
<path d="M157.481 76.6379C157.527 76.6747 157.556 76.728 157.562 76.786C157.568 76.844 157.551 76.902 157.514 76.9473C157.478 76.9926 157.424 77.0214 157.366 77.0274C157.308 77.0334 157.25 77.0161 157.205 76.9793L154.723 74.968C154.678 74.9312 154.649 74.8779 154.642 74.8199C154.636 74.7619 154.653 74.7039 154.69 74.6586C154.727 74.6133 154.78 74.5845 154.838 74.5785C154.896 74.5725 154.954 74.5898 155 74.6266L157.481 76.6379ZM157.516 76.5952L155.034 74.5839C154.977 74.538 154.905 74.5163 154.832 74.5238C154.76 74.5313 154.693 74.5673 154.647 74.6239C154.601 74.6805 154.58 74.753 154.588 74.8256C154.595 74.8981 154.632 74.9647 154.688 75.0107L157.17 77.022C157.227 77.0679 157.3 77.0896 157.372 77.0821C157.445 77.0746 157.511 77.0386 157.557 76.982V76.982C157.603 76.9254 157.624 76.8529 157.617 76.7803C157.609 76.7078 157.573 76.6412 157.516 76.5952V76.5952Z" fill="#5B548F"/>
<path d="M154.118 75.7148C154.067 75.6734 154.034 75.6135 154.027 75.5482C154.02 75.4829 154.04 75.4176 154.081 75.3667C154.122 75.3158 154.182 75.2834 154.247 75.2766C154.313 75.2699 154.378 75.2893 154.429 75.3307L156.911 77.342C156.962 77.3834 156.994 77.4433 157.001 77.5086C157.008 77.5739 156.989 77.6392 156.948 77.6901C156.906 77.741 156.847 77.7734 156.781 77.7802C156.716 77.7869 156.651 77.7674 156.6 77.7261L154.118 75.7148Z" fill="#5B548F"/>
<path d="M156.894 77.3633C156.939 77.4001 156.968 77.4534 156.974 77.5114C156.98 77.5694 156.963 77.6275 156.926 77.6728C156.89 77.718 156.836 77.7468 156.778 77.7528C156.72 77.7588 156.662 77.7415 156.617 77.7047L154.135 75.6935C154.09 75.6567 154.061 75.6034 154.055 75.5454C154.048 75.4874 154.066 75.4293 154.102 75.384C154.139 75.3388 154.192 75.31 154.25 75.304C154.308 75.298 154.366 75.3153 154.412 75.3521L156.894 77.3633ZM156.928 77.3207L154.446 75.3094C154.39 75.2634 154.317 75.2418 154.244 75.2493C154.172 75.2568 154.105 75.2928 154.059 75.3494C154.014 75.406 153.992 75.4785 154 75.551C154.008 75.6236 154.044 75.6901 154.1 75.7361L156.582 77.7474C156.639 77.7934 156.712 77.815 156.784 77.8075C156.857 77.8 156.923 77.764 156.969 77.7074V77.7074C157.015 77.6508 157.036 77.5783 157.029 77.5058C157.021 77.4332 156.985 77.3667 156.928 77.3207Z" fill="#5B548F"/>
<path d="M144.953 87.0233C144.902 86.9819 144.869 86.9219 144.863 86.8567C144.856 86.7914 144.875 86.7261 144.916 86.6752C144.957 86.6243 145.017 86.5918 145.083 86.5851C145.148 86.5784 145.213 86.5978 145.264 86.6392L147.746 88.6505C147.797 88.6919 147.83 88.7518 147.837 88.8171C147.844 88.8824 147.824 88.9476 147.783 88.9986C147.742 89.0495 147.682 89.0819 147.617 89.0886C147.551 89.0954 147.486 89.0759 147.435 89.0345L144.953 87.0233Z" fill="#5B548F"/>
<path d="M147.729 88.6718C147.774 88.7086 147.803 88.7619 147.809 88.8199C147.816 88.8779 147.798 88.936 147.762 88.9812C147.725 89.0265 147.672 89.0553 147.614 89.0613C147.556 89.0673 147.498 89.05 147.452 89.0132L144.97 87.0019C144.925 86.9651 144.896 86.9119 144.89 86.8538C144.884 86.7958 144.901 86.7378 144.938 86.6925C144.974 86.6472 145.028 86.6184 145.086 86.6124C145.144 86.6064 145.202 86.6237 145.247 86.6605L147.729 88.6718ZM147.763 88.6291L145.282 86.6179C145.225 86.5719 145.152 86.5503 145.08 86.5578C145.007 86.5652 144.941 86.6013 144.895 86.6578C144.849 86.7144 144.828 86.787 144.835 86.8595C144.843 86.932 144.879 86.9986 144.936 87.0446L147.418 89.0559C147.474 89.1019 147.547 89.1235 147.62 89.116C147.692 89.1085 147.759 89.0725 147.805 89.0159C147.85 88.9593 147.872 88.8868 147.864 88.8142C147.856 88.7417 147.82 88.6751 147.763 88.6291Z" fill="#5B548F"/>
<path d="M144.365 87.7487C144.314 87.7073 144.282 87.6474 144.275 87.5821C144.268 87.5169 144.287 87.4516 144.328 87.4006C144.37 87.3497 144.429 87.3173 144.495 87.3106C144.56 87.3038 144.625 87.3233 144.676 87.3647L147.158 89.3759C147.209 89.4173 147.242 89.4772 147.249 89.5425C147.256 89.6078 147.236 89.6731 147.195 89.724C147.154 89.7749 147.094 89.8074 147.029 89.8141C146.963 89.8208 146.898 89.8014 146.847 89.76L144.365 87.7487Z" fill="#5B548F"/>
<path d="M147.141 89.3973C147.186 89.4341 147.215 89.4873 147.221 89.5454C147.228 89.6034 147.21 89.6614 147.174 89.7067C147.137 89.752 147.084 89.7808 147.026 89.7868C146.968 89.7928 146.91 89.7755 146.864 89.7387L144.382 87.7274C144.337 87.6906 144.308 87.6373 144.302 87.5793C144.296 87.5213 144.313 87.4633 144.35 87.418C144.386 87.3727 144.44 87.3439 144.498 87.3379C144.556 87.3319 144.614 87.3492 144.659 87.386L147.141 89.3973ZM147.176 89.3546L144.694 87.3433C144.637 87.2973 144.564 87.2757 144.492 87.2832C144.419 87.2907 144.353 87.3267 144.307 87.3833C144.261 87.4399 144.24 87.5124 144.247 87.585C144.255 87.6575 144.291 87.7241 144.348 87.7701L146.83 89.7813C146.886 89.8273 146.959 89.849 147.032 89.8415C147.104 89.834 147.171 89.798 147.217 89.7414C147.262 89.6848 147.284 89.6122 147.276 89.5397C147.268 89.4672 147.232 89.4006 147.176 89.3546Z" fill="#5B548F"/>
<path d="M140.194 98.0133L137.712 96.0021C137.606 95.9159 137.45 95.932 137.364 96.038L137.329 96.0807C137.243 96.1868 137.26 96.3426 137.366 96.4288L139.848 98.4401C139.954 98.5263 140.11 98.5101 140.196 98.4041L140.231 98.3614C140.317 98.2554 140.3 98.0995 140.194 98.0133Z" fill="#5B548F"/>
<path d="M140.176 98.0347C140.222 98.0715 140.251 98.1247 140.257 98.1828C140.263 98.2408 140.246 98.2988 140.209 98.3441L140.175 98.3868C140.138 98.432 140.085 98.4608 140.027 98.4668C139.969 98.4728 139.911 98.4555 139.865 98.4187L137.383 96.4075C137.338 96.3707 137.309 96.3174 137.303 96.2594C137.297 96.2013 137.314 96.1433 137.351 96.098L137.385 96.0554C137.422 96.0101 137.475 95.9813 137.533 95.9753C137.591 95.9693 137.649 95.9866 137.695 96.0234L140.176 98.0347ZM140.211 97.992L137.729 95.9807C137.673 95.9347 137.6 95.9131 137.527 95.9206C137.455 95.9281 137.388 95.9641 137.342 96.0207L137.308 96.0634C137.262 96.12 137.241 96.1925 137.248 96.265C137.256 96.3376 137.292 96.4041 137.349 96.4501L139.831 98.4614C139.887 98.5074 139.96 98.529 140.033 98.5215C140.105 98.514 140.172 98.478 140.217 98.4214L140.252 98.3788C140.298 98.3222 140.319 98.2496 140.312 98.1771C140.304 98.1046 140.268 98.038 140.211 97.992V97.992Z" fill="#5B548F"/>
<path d="M139.675 98.6534L137.193 96.6422C137.087 96.556 136.931 96.5721 136.845 96.6781L136.81 96.7208C136.725 96.8269 136.741 96.9827 136.847 97.0689L139.329 99.0802C139.436 99.1664 139.591 99.1502 139.677 99.0442L139.712 99.0015C139.798 98.8955 139.781 98.7396 139.675 98.6534Z" fill="#5B548F"/>
<path d="M139.658 98.6748C139.703 98.7116 139.732 98.7648 139.738 98.8229C139.744 98.8809 139.727 98.9389 139.691 98.9842L139.656 99.0269C139.619 99.0721 139.566 99.1009 139.508 99.1069C139.45 99.1129 139.392 99.0956 139.346 99.0588L136.865 97.0476C136.819 97.0108 136.79 96.9575 136.784 96.8995C136.778 96.8415 136.795 96.7834 136.832 96.7382L136.866 96.6955C136.903 96.6502 136.956 96.6214 137.014 96.6154C137.072 96.6094 137.131 96.6267 137.176 96.6635L139.658 98.6748ZM139.692 98.6321L137.211 96.6208C137.154 96.5748 137.081 96.5532 137.009 96.5607C136.936 96.5682 136.87 96.6042 136.824 96.6608L136.789 96.7035C136.743 96.7601 136.722 96.8326 136.729 96.9051C136.737 96.9777 136.773 97.0442 136.83 97.0902L139.312 99.1015C139.369 99.1475 139.441 99.1691 139.514 99.1616C139.586 99.1541 139.653 99.1181 139.699 99.0615L139.733 99.0189C139.779 98.9623 139.801 98.8897 139.793 98.8172C139.785 98.7447 139.749 98.6781 139.692 98.6321V98.6321Z" fill="#5B548F"/>
<path d="M132.697 104.628C132.43 104.412 133.677 102.226 136.511 98.5992L137.805 99.6478C134.844 103.172 132.964 104.845 132.697 104.628Z" fill="#5B548F"/>
<path d="M137.767 99.6522C136.51 101.147 135.307 102.466 134.372 103.375C132.966 104.74 132.736 104.625 132.714 104.607C132.692 104.589 132.532 104.389 133.577 102.73C134.272 101.629 135.313 100.178 136.516 98.6382L137.767 99.6522ZM137.844 99.6442L136.507 98.5602C134.009 101.754 132.344 104.378 132.68 104.65C133.015 104.922 135.237 102.75 137.844 99.6442Z" fill="#5B548F"/>
<path d="M134.778 102.06C134.639 101.947 135.36 100.726 136.806 98.8737L137.476 99.4164C135.964 101.215 134.917 102.173 134.778 102.06Z" fill="#5B548F"/>
<path d="M137.437 99.42C136.789 100.189 136.166 100.874 135.678 101.351C134.966 102.047 134.813 102.042 134.796 102.038C134.789 102.022 134.751 101.875 135.286 101.033C135.652 100.457 136.192 99.7054 136.811 98.9127L137.437 99.42ZM137.514 99.412L136.8 98.8333C135.468 100.536 134.581 101.935 134.759 102.08C134.938 102.225 136.124 101.065 137.513 99.411L137.514 99.412Z" fill="#5B548F"/>
<path d="M139.687 108.95C139.374 108.696 140.507 106.73 142.326 104.372L143.619 105.42C141.689 107.688 140 109.204 139.687 108.95Z" fill="#5B548F"/>
<path d="M143.581 105.425C142.65 106.517 141.743 107.47 141.026 108.111C140.208 108.842 139.807 109.012 139.704 108.929C139.601 108.845 139.685 108.418 140.231 107.466C140.71 106.631 141.454 105.548 142.33 104.411L143.581 105.425ZM143.658 105.417L142.321 104.333C140.49 106.703 139.334 108.699 139.669 108.971C140.005 109.243 141.718 107.698 143.658 105.417Z" fill="#5B548F"/>
<path d="M148.858 107.545L167.699 84.2956C169.279 82.3459 171.722 81.2853 171.997 81.5082C172.217 81.6865 171.736 84.3468 170.161 86.2906L151.319 109.54L148.858 107.545Z" fill="#5B548F"/>
<path d="M171.98 81.5296C172.061 81.5951 172.043 82.2244 171.722 83.2468C171.514 83.9061 171.032 85.1758 170.141 86.2747L151.317 109.502L148.896 107.54L167.72 84.3126C168.641 83.1762 169.764 82.4436 170.351 82.108C171.247 81.5959 171.873 81.4429 171.98 81.5296V81.5296ZM172.014 81.4869C171.71 81.2407 169.255 82.3316 167.677 84.2779L148.819 107.548L151.323 109.578L170.182 86.308C171.724 84.4051 172.272 81.696 172.014 81.4869V81.4869Z" fill="#5B548F"/>
<path d="M167.106 84.9684C167.055 84.927 167.023 84.8671 167.016 84.8018C167.009 84.7365 167.028 84.6713 167.069 84.6203C167.111 84.5694 167.171 84.537 167.236 84.5302C167.301 84.5235 167.367 84.543 167.418 84.5843L169.899 86.5956C169.95 86.637 169.983 86.6969 169.99 86.7622C169.997 86.8275 169.978 86.8928 169.936 86.9437C169.895 86.9946 169.835 87.027 169.77 87.0338C169.705 87.0405 169.639 87.0211 169.588 86.9797L167.106 84.9684Z" fill="#5B548F"/>
<path d="M169.882 86.617C169.927 86.6538 169.956 86.707 169.963 86.7651C169.969 86.8231 169.952 86.8811 169.915 86.9264C169.878 86.9716 169.825 87.0005 169.767 87.0064C169.709 87.0124 169.651 86.9951 169.605 86.9584L167.124 84.9471C167.078 84.9103 167.049 84.857 167.043 84.799C167.037 84.741 167.054 84.6829 167.091 84.6377C167.128 84.5924 167.181 84.5636 167.239 84.5576C167.297 84.5516 167.355 84.5689 167.4 84.6057L169.882 86.617ZM169.917 86.5743L167.435 84.563C167.378 84.517 167.306 84.4954 167.233 84.5029C167.16 84.5104 167.094 84.5464 167.048 84.603C167.002 84.6596 166.981 84.7321 166.988 84.8047C166.996 84.8772 167.032 84.9438 167.089 84.9898L169.571 87.001C169.628 87.047 169.7 87.0686 169.773 87.0611C169.845 87.0536 169.912 87.0176 169.958 86.9611V86.9611C170.004 86.9045 170.025 86.8319 170.017 86.7594C170.01 86.6869 169.973 86.6203 169.917 86.5743V86.5743Z" fill="#5B548F"/>
<path d="M166.518 85.6939C166.467 85.6525 166.435 85.5925 166.428 85.5273C166.421 85.462 166.44 85.3967 166.482 85.3458C166.523 85.2948 166.583 85.2624 166.648 85.2557C166.713 85.2489 166.779 85.2684 166.83 85.3098L169.311 87.3211C169.363 87.3625 169.395 87.4224 169.402 87.4877C169.409 87.5529 169.39 87.6182 169.348 87.6692C169.307 87.7201 169.247 87.7525 169.182 87.7592C169.117 87.766 169.051 87.7465 169 87.7051L166.518 85.6939Z" fill="#5B548F"/>
<path d="M169.294 87.3424C169.34 87.3792 169.369 87.4325 169.375 87.4905C169.381 87.5485 169.364 87.6066 169.327 87.6518C169.29 87.6971 169.237 87.7259 169.179 87.7319C169.121 87.7379 169.063 87.7206 169.018 87.6838L166.536 85.6725C166.49 85.6357 166.461 85.5825 166.455 85.5245C166.449 85.4664 166.466 85.4084 166.503 85.3631C166.54 85.3179 166.593 85.2891 166.651 85.2831C166.709 85.2771 166.767 85.2944 166.812 85.3311L169.294 87.3424ZM169.329 87.2998L166.847 85.2885C166.79 85.2425 166.718 85.2209 166.645 85.2284C166.573 85.2359 166.506 85.2719 166.46 85.3284C166.414 85.385 166.393 85.4576 166.401 85.5301C166.408 85.6026 166.444 85.6692 166.501 85.7152L168.983 87.7265C169.04 87.7725 169.112 87.7941 169.185 87.7866C169.257 87.7791 169.324 87.7431 169.37 87.6865V87.6865C169.416 87.6299 169.437 87.5574 169.429 87.4849C169.422 87.4123 169.386 87.3457 169.329 87.2998V87.2998Z" fill="#5B548F"/>
<path d="M157.354 97.0024C157.303 96.961 157.27 96.901 157.263 96.8358C157.256 96.7705 157.276 96.7052 157.317 96.6543C157.358 96.6033 157.418 96.5709 157.483 96.5642C157.549 96.5574 157.614 96.5769 157.665 96.6183L160.147 98.6296C160.198 98.671 160.231 98.7309 160.237 98.7962C160.244 98.8614 160.225 98.9267 160.184 98.9777C160.143 99.0286 160.083 99.061 160.017 99.0677C159.952 99.0745 159.887 99.055 159.836 99.0136L157.354 97.0024Z" fill="#5B548F"/>
<path d="M160.13 98.6509C160.175 98.6877 160.204 98.741 160.21 98.799C160.216 98.857 160.199 98.915 160.162 98.9603C160.126 99.0056 160.073 99.0344 160.014 99.0404C159.956 99.0464 159.898 99.0291 159.853 98.9923L157.371 96.981C157.326 96.9442 157.297 96.891 157.291 96.8329C157.284 96.7749 157.302 96.7169 157.338 96.6716C157.375 96.6263 157.428 96.5975 157.486 96.5915C157.544 96.5855 157.602 96.6028 157.648 96.6396L160.13 98.6509ZM160.164 98.6082L157.682 96.5969C157.626 96.551 157.553 96.5293 157.48 96.5368C157.408 96.5443 157.341 96.5803 157.296 96.6369C157.25 96.6935 157.228 96.7661 157.236 96.8386C157.244 96.9111 157.28 96.9777 157.337 97.0237L159.818 99.035C159.875 99.081 159.948 99.1026 160.02 99.0951C160.093 99.0876 160.159 99.0516 160.205 98.995C160.251 98.9384 160.273 98.8659 160.265 98.7933C160.257 98.7208 160.221 98.6542 160.164 98.6082V98.6082Z" fill="#5B548F"/>
<path d="M156.766 97.7278C156.715 97.6864 156.682 97.6265 156.675 97.5612C156.668 97.4959 156.688 97.4306 156.729 97.3797C156.77 97.3288 156.83 97.2964 156.895 97.2896C156.961 97.2829 157.026 97.3023 157.077 97.3437L159.559 99.355C159.61 99.3964 159.643 99.4563 159.65 99.5216C159.656 99.5869 159.637 99.6522 159.596 99.7031C159.555 99.754 159.495 99.7864 159.429 99.7932C159.364 99.7999 159.299 99.7805 159.248 99.7391L156.766 97.7278Z" fill="#5B548F"/>
<path d="M159.542 99.3764C159.587 99.4131 159.616 99.4664 159.622 99.5244C159.628 99.5825 159.611 99.6405 159.574 99.6858C159.538 99.731 159.485 99.7598 159.427 99.7658C159.368 99.7718 159.31 99.7545 159.265 99.7177L156.783 97.7065C156.738 97.6697 156.709 97.6164 156.703 97.5584C156.697 97.5004 156.714 97.4423 156.75 97.3971C156.787 97.3518 156.84 97.323 156.898 97.317C156.956 97.311 157.014 97.3283 157.06 97.3651L159.542 99.3764ZM159.576 99.3337L157.094 97.3224C157.038 97.2764 156.965 97.2548 156.893 97.2623C156.82 97.2698 156.753 97.3058 156.708 97.3624C156.662 97.419 156.64 97.4915 156.648 97.564C156.656 97.6366 156.692 97.7031 156.749 97.7491L159.23 99.7604C159.287 99.8064 159.36 99.828 159.432 99.8205C159.505 99.813 159.571 99.777 159.617 99.7204C159.663 99.6639 159.685 99.5913 159.677 99.5188C159.669 99.4463 159.633 99.3797 159.576 99.3337V99.3337Z" fill="#5B548F"/>
<path d="M152.595 107.992L150.113 105.981C150.006 105.895 149.85 105.911 149.765 106.017L149.73 106.06C149.644 106.166 149.661 106.322 149.767 106.408L152.249 108.419C152.355 108.505 152.511 108.489 152.597 108.383L152.631 108.34C152.717 108.234 152.701 108.079 152.595 107.992Z" fill="#5B548F"/>
<path d="M152.577 108.014C152.623 108.051 152.652 108.104 152.658 108.162C152.664 108.22 152.647 108.278 152.61 108.323L152.575 108.366C152.539 108.411 152.486 108.44 152.428 108.446C152.369 108.452 152.311 108.435 152.266 108.398L149.784 106.387C149.739 106.35 149.71 106.296 149.704 106.238C149.698 106.18 149.715 106.122 149.751 106.077L149.786 106.034C149.823 105.989 149.876 105.96 149.934 105.954C149.992 105.948 150.05 105.966 150.095 106.002L152.577 108.014ZM152.612 107.971L150.13 105.96C150.073 105.914 150.001 105.892 149.928 105.9C149.856 105.907 149.789 105.943 149.743 106L149.709 106.042C149.663 106.099 149.641 106.172 149.649 106.244C149.657 106.317 149.693 106.383 149.75 106.429L152.231 108.44C152.288 108.486 152.361 108.508 152.433 108.501C152.506 108.493 152.572 108.457 152.618 108.401L152.653 108.358C152.699 108.301 152.72 108.229 152.712 108.156C152.705 108.084 152.669 108.017 152.612 107.971Z" fill="#5B548F"/>
<path d="M152.076 108.633L149.594 106.621C149.488 106.535 149.332 106.551 149.246 106.657L149.211 106.7C149.125 106.806 149.142 106.962 149.248 107.048L151.73 109.059C151.836 109.145 151.992 109.129 152.078 109.023L152.113 108.981C152.199 108.875 152.182 108.719 152.076 108.633Z" fill="#5B548F"/>
<path d="M152.058 108.654C152.104 108.691 152.133 108.744 152.139 108.802C152.145 108.86 152.128 108.918 152.091 108.963L152.057 109.006C152.02 109.051 151.967 109.08 151.909 109.086C151.851 109.092 151.793 109.075 151.747 109.038L149.265 107.027C149.22 106.99 149.191 106.937 149.185 106.879C149.179 106.821 149.196 106.763 149.233 106.717L149.267 106.675C149.304 106.629 149.357 106.6 149.415 106.594C149.473 106.588 149.531 106.606 149.577 106.643L152.058 108.654ZM152.093 108.611L149.611 106.6C149.554 106.554 149.482 106.532 149.409 106.54C149.337 106.547 149.27 106.583 149.224 106.64L149.19 106.683C149.144 106.739 149.122 106.812 149.13 106.884C149.138 106.957 149.174 107.023 149.231 107.069L151.713 109.081C151.769 109.127 151.842 109.148 151.915 109.141C151.987 109.133 152.054 109.097 152.099 109.041L152.134 108.998C152.18 108.941 152.201 108.869 152.194 108.796C152.186 108.724 152.15 108.657 152.093 108.611Z" fill="#5B548F"/>
<path d="M145.098 114.607C144.831 114.391 146.077 112.205 148.912 108.578L150.206 109.627C147.244 113.151 145.365 114.824 145.098 114.607Z" fill="#5B548F"/>
<path d="M150.168 109.631C148.911 111.126 147.708 112.445 146.773 113.354C145.366 114.719 145.137 114.604 145.115 114.586C145.093 114.568 144.932 114.368 145.978 112.709C146.672 111.608 147.714 110.157 148.916 108.617L150.168 109.631ZM150.245 109.623L148.907 108.539C146.409 111.733 144.745 114.357 145.08 114.629C145.416 114.901 147.638 112.729 150.245 109.623Z" fill="#5B548F"/>
<path d="M147.179 112.039C147.04 111.926 147.761 110.705 149.207 108.853L149.877 109.395C148.364 111.194 147.318 112.152 147.179 112.039Z" fill="#5B548F"/>
<path d="M149.837 109.399C149.19 110.168 148.566 110.853 148.078 111.33C147.367 112.026 147.214 112.021 147.197 112.017C147.19 112.002 147.152 111.854 147.687 111.012C148.053 110.436 148.593 109.684 149.211 108.892L149.837 109.399ZM149.915 109.391L149.201 108.812C147.869 110.515 146.981 111.914 147.16 112.059C147.339 112.204 148.525 111.044 149.914 109.39L149.915 109.391Z" fill="#5B548F"/>
<path d="M161.276 75.5412C161.383 75.6272 161.538 75.6111 161.624 75.5052C161.71 75.3993 161.693 75.2437 161.587 75.1576C161.481 75.0716 161.325 75.0877 161.239 75.1936C161.154 75.2995 161.17 75.4551 161.276 75.5412Z" fill="#5B548F"/>
<path d="M161.57 75.1789C161.604 75.2063 161.629 75.2431 161.642 75.2846C161.655 75.3261 161.655 75.3705 161.643 75.4121C161.63 75.4537 161.606 75.4907 161.572 75.5185C161.539 75.5462 161.498 75.5634 161.455 75.5678C161.412 75.5723 161.368 75.5638 161.33 75.5435C161.291 75.5233 161.26 75.492 161.239 75.4538C161.218 75.4156 161.209 75.3721 161.213 75.3289C161.217 75.2856 161.234 75.2445 161.261 75.2108C161.298 75.1656 161.351 75.1369 161.409 75.1309C161.467 75.1249 161.525 75.1422 161.57 75.1789ZM161.604 75.1363C161.562 75.102 161.511 75.0811 161.457 75.076C161.403 75.0709 161.348 75.082 161.3 75.1078C161.253 75.1337 161.214 75.1731 161.189 75.2211C161.163 75.2691 161.153 75.3236 161.159 75.3776C161.164 75.4316 161.186 75.4827 161.221 75.5245C161.256 75.5663 161.302 75.5969 161.354 75.6125C161.406 75.628 161.462 75.6277 161.513 75.6117C161.565 75.5957 161.611 75.5646 161.645 75.5225C161.691 75.466 161.713 75.3935 161.705 75.3211C161.697 75.2487 161.661 75.1822 161.604 75.1363V75.1363Z" fill="#5B548F"/>
<path d="M161.148 75.4371C161.254 75.5232 161.41 75.5071 161.496 75.4012C161.582 75.2953 161.565 75.1397 161.459 75.0536C161.353 74.9675 161.197 74.9836 161.111 75.0895C161.025 75.1954 161.042 75.3511 161.148 75.4371Z" fill="#5B548F"/>
<path d="M161.442 75.0749C161.475 75.1023 161.5 75.139 161.513 75.1805C161.526 75.222 161.526 75.2664 161.514 75.308C161.502 75.3497 161.477 75.3867 161.444 75.4144C161.411 75.4421 161.37 75.4593 161.327 75.4638C161.283 75.4682 161.24 75.4598 161.201 75.4395C161.163 75.4192 161.131 75.388 161.11 75.3498C161.09 75.3116 161.081 75.2681 161.085 75.2248C161.089 75.1816 161.105 75.1405 161.133 75.1068C161.169 75.0616 161.222 75.0328 161.28 75.0268C161.338 75.0208 161.396 75.0381 161.442 75.0749ZM161.476 75.0322C161.434 74.998 161.382 74.977 161.328 74.972C161.274 74.9669 161.22 74.978 161.172 75.0038C161.124 75.0296 161.085 75.069 161.06 75.1171C161.035 75.1651 161.025 75.2195 161.03 75.2735C161.036 75.3276 161.058 75.3787 161.092 75.4205C161.127 75.4623 161.174 75.4929 161.226 75.5084C161.278 75.5239 161.333 75.5237 161.385 75.5076C161.437 75.4916 161.483 75.4606 161.517 75.4185C161.563 75.3619 161.584 75.2895 161.577 75.2171C161.569 75.1447 161.533 75.0782 161.476 75.0322V75.0322Z" fill="#5B548F"/>
<path d="M142.503 96.7386L160.185 74.92C162.167 72.4748 165.104 71.1409 166.677 70.5659C168.894 69.7518 170.803 69.5464 171.195 69.8641C171.494 70.1068 171.705 71.9395 171.381 74.3748C171.155 76.069 170.483 79.2706 168.529 81.6821L150.847 103.501L142.503 96.7386Z" fill="#5B548F"/>
<path d="M171.177 69.8854C171.463 70.1167 171.674 71.9795 171.354 74.371C171.128 76.0623 170.457 79.2588 168.508 81.6648L150.843 103.462L142.542 96.7346L160.206 74.9373C162.184 72.4973 165.116 71.1663 166.689 70.5894C168.895 69.7807 170.792 69.5733 171.177 69.8854ZM171.212 69.8427C170.399 69.1839 163.595 70.669 160.164 74.9027L142.464 96.7426L150.851 103.539L168.55 81.6994C171.981 77.4658 171.854 70.3629 171.212 69.8427Z" fill="#5B548F"/>
<path d="M143.658 99.5126L154.578 86.0376C156.698 83.5088 160.464 82.1657 161.009 82.6074C161.346 82.8807 161.361 83.9982 161.045 85.3235C160.671 86.8937 159.92 88.4551 158.986 89.6077L148.065 103.084L143.658 99.5126Z" fill="#5B548F"/>
<path d="M160.992 82.6288C161.321 82.8955 161.332 84.0016 161.018 85.3181C160.644 86.8844 159.895 88.442 158.963 89.5921L148.06 103.045L143.696 99.5086L154.599 86.0553C155.864 84.5468 157.529 83.6345 158.41 83.2252C159.778 82.5873 160.761 82.4439 160.991 82.6301L160.992 82.6288ZM161.025 82.5874C160.469 82.1366 156.699 83.4646 154.556 86.0215L143.619 99.5166L148.069 103.123L159.007 89.6267C161.133 87.0035 161.711 83.141 161.026 82.5861L161.025 82.5874Z" fill="#5B548F"/>
<path d="M140.376 97.4498C138.864 96.2247 136.924 94.6423 134.609 92.7451C136.943 89.885 140.073 90.0871 143.385 90.3016C146.747 90.5191 150.215 90.7433 153.151 87.7987L143.381 99.854C143.271 99.7715 142.66 99.3006 140.376 97.4498Z" fill="#5B548F"/>
<path d="M152.853 88.1227L143.377 99.8153C143.22 99.6954 142.563 99.1843 140.394 97.4272C138.887 96.2059 136.954 94.6294 134.649 92.7403C136.973 89.9129 140.087 90.1145 143.384 90.3275C146.631 90.5389 149.978 90.7556 152.853 88.1227ZM153.864 86.9626C147.985 94.2171 139.481 86.6895 134.57 92.7491C137.198 94.9017 139.053 96.4128 140.359 97.4712C142.969 99.5865 143.385 99.8926 143.385 99.8926L153.864 86.9626Z" fill="#5B548F"/>
<path d="M150.485 105.638C148.439 103.98 147.901 103.521 147.799 103.434L157.562 91.3736C155.292 94.8562 156.232 98.2017 157.143 101.446C158.041 104.641 158.889 107.66 156.576 110.537C154.084 108.543 152.035 106.895 150.485 105.639L150.485 105.638Z" fill="#5B548F"/>
<path d="M157.307 91.7327C155.33 95.0904 156.236 98.3189 157.117 101.453C158.012 104.635 158.854 107.639 156.571 110.499C154.089 108.511 152.047 106.869 150.501 105.616C148.565 104.048 147.98 103.553 147.837 103.431L157.307 91.7331L157.307 91.7327ZM159.508 88.9293L147.76 103.438C147.76 103.438 148.116 103.756 150.466 105.66C151.782 106.727 153.722 108.29 156.579 110.577C161.488 104.513 152.357 97.7604 158.232 90.5024C159.127 89.3976 159.507 88.929 159.507 88.929L159.508 88.9293Z" fill="#5B548F"/>
<path d="M141.317 100.126L143.341 97.6295C143.611 97.296 144.004 97.0839 144.432 97.0396C144.86 96.9954 145.288 97.1227 145.623 97.3936L149.389 100.445C149.723 100.717 149.936 101.11 149.982 101.537C150.027 101.965 149.901 102.393 149.631 102.727L147.607 105.223L141.317 100.126Z" fill="#5B548F"/>
<path d="M149.371 100.467C149.7 100.733 149.91 101.119 149.955 101.54C150 101.961 149.875 102.381 149.609 102.71L147.603 105.185L141.356 100.122L143.362 97.6468C143.628 97.3186 144.014 97.1098 144.435 97.0663C144.855 97.0228 145.277 97.1482 145.606 97.4149L149.371 100.467ZM149.406 100.424L145.64 97.3722C145.3 97.0963 144.864 96.9666 144.429 97.0116C143.993 97.0566 143.594 97.2726 143.319 97.6121L141.279 100.13L147.612 105.262L149.652 102.744C149.927 102.405 150.056 101.97 150.01 101.534C149.963 101.099 149.746 100.7 149.406 100.424Z" fill="#5B548F"/>
<path d="M143.338 104.062C143.231 103.974 143.162 103.848 143.148 103.71C143.133 103.572 143.174 103.434 143.261 103.327L147.895 97.6085C147.982 97.501 148.108 97.4325 148.246 97.4183C148.384 97.4041 148.522 97.4451 148.63 97.5325C148.738 97.6199 148.806 97.7464 148.821 97.8842C148.836 98.022 148.795 98.1598 148.708 98.2673L144.074 103.986C143.986 104.093 143.86 104.161 143.722 104.176C143.584 104.19 143.446 104.149 143.338 104.062V104.062Z" fill="#5B548F"/>
<path d="M148.612 97.5538C148.715 97.6366 148.78 97.7565 148.794 97.887C148.807 98.0176 148.769 98.1481 148.686 98.25L144.052 103.968C143.97 104.07 143.85 104.135 143.719 104.148C143.589 104.162 143.458 104.123 143.356 104.04C143.254 103.957 143.189 103.838 143.175 103.707C143.161 103.576 143.199 103.446 143.282 103.344L147.916 97.6258C147.999 97.5239 148.118 97.4591 148.249 97.4456C148.38 97.4321 148.51 97.4711 148.612 97.5538ZM148.647 97.5112C148.534 97.4192 148.388 97.376 148.243 97.3909C148.098 97.4059 147.965 97.4779 147.873 97.5911L143.239 103.309C143.147 103.423 143.105 103.568 143.12 103.713C143.135 103.858 143.208 103.991 143.321 104.083C143.435 104.175 143.58 104.218 143.725 104.203C143.87 104.188 144.003 104.116 144.095 104.003L148.729 98.2847C148.821 98.1715 148.864 98.0264 148.848 97.8814C148.833 97.7363 148.761 97.6031 148.647 97.5112V97.5112Z" fill="#5B548F"/>
<path d="M158.725 86.943C158.686 86.6413 158.532 86.366 158.296 86.1742C158.059 85.9824 157.758 85.8889 157.454 85.9131L157.403 85.4207C157.836 85.3832 158.268 85.5157 158.607 85.7902C158.945 86.0647 159.165 86.4596 159.218 86.8918L158.725 86.943Z" fill="#5B548F"/>
<path d="M158.591 85.8093C158.918 86.0724 159.132 86.4504 159.189 86.8654L158.751 86.9107C158.705 86.6123 158.55 86.3414 158.315 86.1511C158.08 85.9608 157.783 85.8649 157.482 85.8822L157.434 85.4437C157.852 85.4134 158.266 85.5441 158.591 85.809L158.591 85.8093ZM158.625 85.7663C158.452 85.6245 158.251 85.5186 158.037 85.4546C157.822 85.3906 157.596 85.3699 157.373 85.3936L157.431 85.9405C157.582 85.9249 157.735 85.9392 157.88 85.9825C158.026 86.0258 158.162 86.0973 158.28 86.193C158.398 86.2886 158.496 86.4065 158.568 86.5399C158.641 86.6733 158.686 86.8196 158.702 86.9704L159.249 86.9139C159.226 86.6911 159.159 86.4749 159.052 86.2779C158.945 86.0809 158.8 85.907 158.625 85.7663V85.7663Z" fill="#5B548F"/>
<path d="M152.232 93.6991C152.35 93.7947 152.523 93.7768 152.619 93.6591C152.714 93.5415 152.696 93.3686 152.578 93.2729C152.46 93.1773 152.287 93.1952 152.191 93.3129C152.096 93.4305 152.114 93.6034 152.232 93.6991Z" fill="#5B548F"/>
<path d="M152.786 93.0163C152.904 93.1119 153.076 93.0941 153.172 92.9764C153.267 92.8587 153.249 92.6858 153.131 92.5902C153.013 92.4945 152.84 92.5124 152.745 92.6301C152.649 92.7478 152.668 92.9207 152.786 93.0163Z" fill="#5B548F"/>
<path d="M153.339 92.3335C153.457 92.4291 153.63 92.4113 153.725 92.2936C153.821 92.1759 153.802 92.003 153.684 91.9074C153.566 91.8118 153.393 91.8296 153.298 91.9473C153.203 92.065 153.221 92.2379 153.339 92.3335Z" fill="#5B548F"/>
<path d="M153.892 91.6508C154.01 91.7464 154.183 91.7285 154.279 91.6108C154.374 91.4931 154.356 91.3202 154.238 91.2246C154.12 91.129 153.947 91.1469 153.851 91.2645C153.756 91.3822 153.774 91.5551 153.892 91.6508Z" fill="#5B548F"/>
<path d="M154.446 90.968C154.564 91.0636 154.737 91.0457 154.832 90.928C154.927 90.8104 154.909 90.6374 154.791 90.5418C154.673 90.4462 154.5 90.4641 154.405 90.5818C154.309 90.6994 154.328 90.8723 154.446 90.968Z" fill="#5B548F"/>
<path d="M154.999 90.2852C155.117 90.3808 155.29 90.3629 155.385 90.2453C155.481 90.1276 155.462 89.9547 155.344 89.8591C155.226 89.7634 155.053 89.7813 154.958 89.899C154.863 90.0167 154.881 90.1896 154.999 90.2852Z" fill="#5B548F"/>
<path d="M158.311 79.1123C158.429 79.2079 158.602 79.1901 158.698 79.0724C158.793 78.9547 158.775 78.7818 158.657 78.6862C158.539 78.5905 158.366 78.6084 158.27 78.7261C158.175 78.8438 158.193 79.0167 158.311 79.1123Z" fill="#5B548F"/>
<path d="M158.865 78.4295C158.983 78.5252 159.156 78.5073 159.251 78.3896C159.346 78.2719 159.328 78.099 159.21 78.0034C159.092 77.9078 158.919 77.9257 158.824 78.0433C158.728 78.161 158.747 78.3339 158.865 78.4295Z" fill="#5B548F"/>
<path d="M159.418 77.7468C159.536 77.8424 159.709 77.8245 159.804 77.7068C159.9 77.5892 159.881 77.4163 159.763 77.3206C159.645 77.225 159.472 77.2429 159.377 77.3606C159.282 77.4782 159.3 77.6511 159.418 77.7468Z" fill="#5B548F"/>
<path d="M159.971 77.064C160.089 77.1596 160.262 77.1417 160.358 77.0241C160.453 76.9064 160.435 76.7335 160.317 76.6378C160.199 76.5422 160.026 76.5601 159.93 76.6778C159.835 76.7954 159.853 76.9684 159.971 77.064Z" fill="#5B548F"/>
<path d="M160.525 76.3812C160.643 76.4768 160.816 76.459 160.911 76.3413C161.006 76.2236 160.988 76.0507 160.87 75.9551C160.752 75.8595 160.579 75.8773 160.484 75.995C160.388 76.1127 160.407 76.2856 160.525 76.3812Z" fill="#5B548F"/>
<path d="M161.078 75.6984C161.196 75.7941 161.369 75.7762 161.464 75.6585C161.56 75.5408 161.541 75.3679 161.423 75.2723C161.305 75.1767 161.132 75.1945 161.037 75.3122C160.942 75.4299 160.96 75.6028 161.078 75.6984Z" fill="#5B548F"/>
</g>
<defs>
<linearGradient id="paint0_linear" x1="187.262" y1="-3.05176e-05" x2="187.262" y2="186.443" gradientUnits="userSpaceOnUse">
<stop stop-color="#180E69"/>
<stop offset="1" stop-color="#1E1C33" stop-opacity="0"/>
</linearGradient>
<linearGradient id="paint1_linear" x1="187.262" y1="-3.05176e-05" x2="187.262" y2="186.443" gradientUnits="userSpaceOnUse">
<stop stop-color="#180E69"/>
<stop offset="1" stop-color="#1E1C33" stop-opacity="0"/>
</linearGradient>
<linearGradient id="paint2_linear" x1="258.999" y1="-51" x2="121.999" y2="145" gradientUnits="userSpaceOnUse">
<stop stop-color="#171050"/>
<stop offset="0.156532" stop-color="#171050"/>
<stop offset="1" stop-color="#3C347A" stop-opacity="0"/>
</linearGradient>
<linearGradient id="paint3_linear" x1="258.999" y1="-51" x2="121.999" y2="145" gradientUnits="userSpaceOnUse">
<stop stop-color="#171050"/>
<stop offset="0.156532" stop-color="#171050"/>
<stop offset="1" stop-color="#3C347A" stop-opacity="0"/>
</linearGradient>
<linearGradient id="paint4_linear" x1="179.999" y1="120.132" x2="179.999" y2="310.5" gradientUnits="userSpaceOnUse">
<stop stop-color="#ACA2FF"/>
<stop offset="0.359375" stop-color="#503CE9"/>
</linearGradient>
<linearGradient id="paint5_linear" x1="177.339" y1="130.814" x2="177.339" y2="311.924" gradientUnits="userSpaceOnUse">
<stop stop-color="#8577F4"/>
<stop offset="0.744792" stop-color="#503CE9"/>
</linearGradient>
<linearGradient id="paint6_linear" x1="184.999" y1="183.682" x2="184.999" y2="312" gradientUnits="userSpaceOnUse">
<stop stop-color="#8577F4"/>
<stop offset="0.0833333" stop-color="#9184FB"/>
<stop offset="0.744792" stop-color="#503CE9"/>
</linearGradient>
<linearGradient id="paint7_linear" x1="169.999" y1="7" x2="169.999" y2="14" gradientUnits="userSpaceOnUse">
<stop stop-color="#F7FFD8"/>
<stop offset="1" stop-color="#D3D3C7" stop-opacity="0"/>
</linearGradient>
<linearGradient id="paint8_linear" x1="130.999" y1="83" x2="130.999" y2="90" gradientUnits="userSpaceOnUse">
<stop stop-color="#F7FFD8"/>
<stop offset="1" stop-color="#D3D3C7" stop-opacity="0"/>
</linearGradient>
<linearGradient id="paint9_linear" x1="185.999" y1="131" x2="185.999" y2="138" gradientUnits="userSpaceOnUse">
<stop stop-color="#F7FFD8"/>
<stop offset="1" stop-color="#D3D3C7" stop-opacity="0"/>
</linearGradient>
<linearGradient id="paint10_linear" x1="195.999" y1="93" x2="195.999" y2="100" gradientUnits="userSpaceOnUse">
<stop stop-color="#F7FFD8"/>
<stop offset="1" stop-color="#D3D3C7" stop-opacity="0"/>
</linearGradient>
<linearGradient id="paint11_linear" x1="286.999" y1="84" x2="286.999" y2="91" gradientUnits="userSpaceOnUse">
<stop stop-color="#F7FFD8"/>
<stop offset="1" stop-color="#D3D3C7" stop-opacity="0"/>
</linearGradient>
<linearGradient id="paint12_linear" x1="208.999" y1="115" x2="208.999" y2="122" gradientUnits="userSpaceOnUse">
<stop stop-color="#F7FFD8"/>
<stop offset="1" stop-color="#D3D3C7" stop-opacity="0"/>
</linearGradient>
<linearGradient id="paint13_linear" x1="258.999" y1="35" x2="258.999" y2="42" gradientUnits="userSpaceOnUse">
<stop stop-color="#F7FFD8"/>
<stop offset="1" stop-color="#D3D3C7" stop-opacity="0"/>
</linearGradient>
<linearGradient id="paint14_linear" x1="36.999" y1="113" x2="36.999" y2="120" gradientUnits="userSpaceOnUse">
<stop stop-color="#F7FFD8"/>
<stop offset="1" stop-color="#D3D3C7" stop-opacity="0"/>
</linearGradient>
<linearGradient id="paint15_linear" x1="71.999" y1="76" x2="71.999" y2="83" gradientUnits="userSpaceOnUse">
<stop stop-color="#F7FFD8"/>
<stop offset="1" stop-color="#D3D3C7" stop-opacity="0"/>
</linearGradient>
<linearGradient id="paint16_linear" x1="278.999" y1="105" x2="278.999" y2="112" gradientUnits="userSpaceOnUse">
<stop stop-color="#F7FFD8"/>
<stop offset="1" stop-color="#D3D3C7" stop-opacity="0"/>
</linearGradient>
<linearGradient id="paint17_linear" x1="109.999" y1="32" x2="109.999" y2="39" gradientUnits="userSpaceOnUse">
<stop stop-color="#F7FFD8"/>
<stop offset="1" stop-color="#D3D3C7" stop-opacity="0"/>
</linearGradient>
<linearGradient id="paint18_linear" x1="233.637" y1="27.1381" x2="234.188" y2="87.7791" gradientUnits="userSpaceOnUse">
<stop stop-color="#6C5BEF"/>
<stop offset="0.364583" stop-color="#30277A"/>
<stop offset="0.734375" stop-color="#0E0840"/>
</linearGradient>
<clipPath id="clip0">
<rect width="28.3232" height="51.3024" fill="white" transform="translate(160.301 61) rotate(39.022)"/>
</clipPath>
</defs>
</svg>
