<svg width="322" height="294" viewBox="0 0 322 294" fill="none" xmlns="http://www.w3.org/2000/svg">
<path d="M138.551 90.6569C128.589 129.634 204.134 181.653 166.052 216.157C127.97 250.661 97.0554 232.239 62.5514 194.157C27.5509 159.157 18.5507 141.657 27.5508 111.657C65.6328 77.153 94.193 112.657 138.551 90.6569Z" fill="#332D64"/>
<path d="M138.551 90.6569C128.589 129.634 204.134 181.653 166.052 216.157C127.97 250.661 97.0554 232.239 62.5514 194.157C27.5509 159.157 18.5507 141.657 27.5508 111.657C65.6328 77.153 94.193 112.657 138.551 90.6569Z" fill="#332D64"/>
<path d="M144.633 95.6569C134.671 134.634 208.753 186.653 170.671 221.157C132.589 255.661 101.675 237.239 67.171 199.157C32.1704 164.157 23.1703 146.657 32.1703 116.657C70.2523 82.1529 100.275 117.657 144.633 95.6569Z" fill="#332D64"/>
<path d="M144.633 95.6569C134.671 134.634 208.753 186.653 170.671 221.157C132.589 255.661 101.675 237.239 67.171 199.157C32.1704 164.157 23.1703 146.657 32.1703 116.657C70.2523 82.1529 100.275 117.657 144.633 95.6569Z" fill="#332D64"/>
<path d="M132.013 86.3298C122.051 125.307 196.133 177.326 158.051 211.83C119.969 246.334 89.0548 227.912 54.5509 189.83C19.5503 154.83 20.5515 137.657 28.0513 104.657C66.1333 70.1529 87.6545 108.33 132.013 86.3298Z" fill="#332D64"/>
<path d="M132.013 86.3298C122.051 125.307 196.133 177.326 158.051 211.83C119.969 246.334 89.0548 227.912 54.5509 189.83C19.5503 154.83 20.5515 137.657 28.0513 104.657C66.1333 70.1529 87.6545 108.33 132.013 86.3298Z" fill="#332D64"/>
<path d="M321.55 145.157C321.55 230.761 252.155 291.657 166.55 291.657C80.9463 291.657 11.5504 219.657 11.5504 145.157C105.05 185.157 71.5504 188.157 166.55 159.157C229.05 118.657 321.55 59.5528 321.55 145.157Z" fill="url(#paint0_linear)"/>
<path d="M320.052 163.852C311.552 237.157 249.155 293.081 163.551 293.081C53.9612 289.81 10.551 201.81 10.551 141.081C10.551 55.4767 116.037 163.852 201.641 163.852C287.245 163.852 320.052 145.852 320.052 163.852Z" fill="url(#paint1_linear)"/>
<path d="M299.052 223.157C266.552 273.657 215.087 291.339 172.004 293.157C89.0515 296.657 43.5504 225.463 43.5504 204.698C43.5504 133.595 76.5504 173.657 155.05 202.157C235.299 220.43 198.052 210.842 299.052 223.157Z" fill="url(#paint2_linear)"/>
<circle cx="220.188" cy="29.7949" r="21.5" transform="rotate(-147.901 220.188 29.7949)" fill="url(#paint3_linear)"/>
<g clip-path="url(#clip0)">
<path d="M147.851 57.2821C147.957 57.3682 148.113 57.3521 148.198 57.2462C148.284 57.1403 148.268 56.9846 148.162 56.8986C148.055 56.8125 147.9 56.8286 147.814 56.9345C147.728 57.0404 147.745 57.196 147.851 57.2821Z" fill="#5B548F"/>
<path d="M148.144 56.9198C148.178 56.9472 148.203 56.984 148.216 57.0255C148.229 57.067 148.229 57.1114 148.217 57.153C148.205 57.1947 148.18 57.2317 148.147 57.2594C148.113 57.2871 148.073 57.3043 148.029 57.3088C147.986 57.3132 147.942 57.3048 147.904 57.2845C147.865 57.2642 147.834 57.233 147.813 57.1948C147.792 57.1565 147.783 57.1131 147.787 57.0698C147.791 57.0266 147.808 56.9855 147.835 56.9518C147.872 56.9066 147.925 56.8778 147.983 56.8718C148.041 56.8658 148.099 56.8831 148.144 56.9198ZM148.179 56.8772C148.137 56.843 148.085 56.822 148.031 56.8169C147.977 56.8119 147.923 56.823 147.875 56.8488C147.827 56.8746 147.788 56.914 147.763 56.962C147.738 57.01 147.727 57.0645 147.733 57.1185C147.739 57.1725 147.76 57.2237 147.795 57.2655C147.83 57.3073 147.876 57.3379 147.928 57.3534C147.98 57.3689 148.036 57.3686 148.088 57.3526C148.14 57.3366 148.186 57.3056 148.22 57.2634C148.242 57.2354 148.259 57.2033 148.27 57.1687C148.28 57.1342 148.283 57.0979 148.279 57.0621C148.275 57.0262 148.265 56.9914 148.247 56.9597C148.23 56.928 148.207 56.9 148.179 56.8772Z" fill="#5B548F"/>
<path d="M148.295 57.7836C148.401 57.8696 148.557 57.8535 148.643 57.7476C148.729 57.6417 148.712 57.4861 148.606 57.4C148.5 57.314 148.344 57.3301 148.258 57.436C148.172 57.5419 148.189 57.6975 148.295 57.7836Z" fill="#5B548F"/>
<path d="M148.589 57.4213C148.622 57.4487 148.647 57.4855 148.66 57.527C148.673 57.5685 148.674 57.6129 148.661 57.6545C148.649 57.6961 148.625 57.7331 148.591 57.7609C148.558 57.7886 148.517 57.8058 148.474 57.8102C148.43 57.8147 148.387 57.8063 148.348 57.786C148.31 57.7657 148.278 57.7344 148.257 57.6962C148.237 57.658 148.228 57.6145 148.232 57.5713C148.236 57.528 148.252 57.487 148.28 57.4532C148.316 57.408 148.369 57.3793 148.427 57.3733C148.485 57.3673 148.543 57.3846 148.589 57.4213ZM148.623 57.3787C148.581 57.3444 148.529 57.3235 148.475 57.3184C148.421 57.3133 148.367 57.3244 148.319 57.3503C148.271 57.3761 148.232 57.4155 148.207 57.4635C148.182 57.5115 148.172 57.566 148.177 57.62C148.183 57.674 148.205 57.7251 148.239 57.767C148.274 57.8088 148.321 57.8394 148.373 57.8549C148.425 57.8704 148.48 57.8701 148.532 57.8541C148.584 57.8381 148.63 57.807 148.664 57.7649C148.71 57.7084 148.731 57.636 148.724 57.5635C148.716 57.4911 148.68 57.4246 148.623 57.3787V57.3787Z" fill="#5B548F"/>
<path d="M147.085 59.2771C147.191 59.3632 147.346 59.3471 147.432 59.2412C147.518 59.1353 147.502 58.9797 147.395 58.8936C147.289 58.8076 147.134 58.8236 147.048 58.9296C146.962 59.0355 146.978 59.1911 147.085 59.2771Z" fill="#5B548F"/>
<path d="M147.378 58.9149C147.412 58.9423 147.437 58.979 147.45 59.0205C147.463 59.0621 147.463 59.1064 147.451 59.1481C147.438 59.1897 147.414 59.2267 147.381 59.2544C147.347 59.2822 147.306 59.2993 147.263 59.3038C147.22 59.3083 147.176 59.2998 147.138 59.2795C147.099 59.2592 147.068 59.228 147.047 59.1898C147.026 59.1516 147.017 59.1081 147.021 59.0649C147.025 59.0216 147.042 58.9805 147.069 58.9468C147.106 58.9016 147.159 58.8728 147.217 58.8668C147.275 58.8609 147.333 58.8781 147.378 58.9149ZM147.413 58.8723C147.37 58.838 147.319 58.817 147.265 58.812C147.211 58.8069 147.156 58.818 147.109 58.8438C147.061 58.8697 147.022 58.9091 146.997 58.9571C146.972 59.0051 146.961 59.0595 146.967 59.1136C146.973 59.1676 146.994 59.2187 147.029 59.2605C147.064 59.3023 147.11 59.3329 147.162 59.3484C147.214 59.3639 147.27 59.3637 147.322 59.3477C147.374 59.3316 147.42 59.3006 147.454 59.2585C147.499 59.202 147.521 59.1295 147.513 59.0571C147.505 58.9847 147.469 58.9182 147.413 58.8723V58.8723Z" fill="#5B548F"/>
<path d="M147.418 57.9915C147.524 58.0776 147.679 58.0615 147.765 57.9556C147.851 57.8497 147.835 57.6941 147.728 57.608C147.622 57.522 147.466 57.538 147.381 57.644C147.295 57.7499 147.311 57.9055 147.418 57.9915Z" fill="#5B548F"/>
<path d="M147.711 57.6293C147.745 57.6567 147.77 57.6935 147.783 57.735C147.796 57.7765 147.796 57.8208 147.784 57.8625C147.771 57.9041 147.747 57.9411 147.714 57.9688C147.68 57.9966 147.639 58.0137 147.596 58.0182C147.553 58.0227 147.509 58.0142 147.471 57.9939C147.432 57.9737 147.401 57.9424 147.38 57.9042C147.359 57.866 147.35 57.8225 147.354 57.7793C147.358 57.736 147.375 57.6949 147.402 57.6612C147.439 57.616 147.492 57.5873 147.55 57.5813C147.608 57.5753 147.666 57.5925 147.711 57.6293ZM147.746 57.5867C147.703 57.5524 147.652 57.5314 147.598 57.5264C147.544 57.5213 147.489 57.5324 147.442 57.5582C147.394 57.5841 147.355 57.6235 147.33 57.6715C147.304 57.7195 147.294 57.774 147.3 57.828C147.305 57.882 147.327 57.9331 147.362 57.9749C147.397 58.0167 147.443 58.0473 147.495 58.0628C147.547 58.0784 147.603 58.0781 147.655 58.0621C147.707 58.0461 147.752 58.015 147.787 57.9729C147.832 57.9164 147.854 57.8439 147.846 57.7715C147.838 57.6991 147.802 57.6326 147.746 57.5867V57.5867Z" fill="#5B548F"/>
<path d="M148.005 57.2661C148.112 57.3522 148.267 57.3361 148.353 57.2302C148.439 57.1243 148.422 56.9686 148.316 56.8826C148.21 56.7965 148.054 56.8126 147.969 56.9185C147.883 57.0244 147.899 57.18 148.005 57.2661Z" fill="#5B548F"/>
<path d="M148.299 56.9038C148.333 56.9312 148.358 56.968 148.371 57.0095C148.384 57.051 148.384 57.0954 148.372 57.137C148.359 57.1787 148.335 57.2157 148.302 57.2434C148.268 57.2711 148.227 57.2883 148.184 57.2928C148.141 57.2972 148.097 57.2888 148.059 57.2685C148.02 57.2482 147.989 57.217 147.968 57.1788C147.947 57.1406 147.938 57.0971 147.942 57.0538C147.946 57.0106 147.963 56.9695 147.99 56.9358C148.027 56.8906 148.08 56.8618 148.138 56.8558C148.196 56.8498 148.254 56.8671 148.299 56.9038ZM148.334 56.8612C148.291 56.827 148.24 56.806 148.186 56.8009C148.132 56.7959 148.077 56.807 148.03 56.8328C147.982 56.8586 147.943 56.898 147.918 56.946C147.892 56.9941 147.882 57.0485 147.888 57.1025C147.893 57.1565 147.915 57.2077 147.95 57.2495C147.985 57.2913 148.031 57.3219 148.083 57.3374C148.135 57.3529 148.191 57.3526 148.243 57.3366C148.294 57.3206 148.34 57.2896 148.375 57.2474C148.42 57.1909 148.442 57.1185 148.434 57.0461C148.426 56.9736 148.39 56.9071 148.334 56.8612V56.8612Z" fill="#5B548F"/>
<path d="M147.532 56.67C147.626 56.7465 147.764 56.7322 147.841 56.6381C147.917 56.5439 147.902 56.4056 147.808 56.3291C147.713 56.2526 147.575 56.2669 147.499 56.3611C147.422 56.4552 147.437 56.5935 147.532 56.67Z" fill="#5B548F"/>
<path d="M123.008 78.7223L141.85 55.4734C143.43 53.5236 145.873 52.463 146.148 52.686C146.368 52.8642 145.887 55.5246 144.312 57.4683L125.47 80.7173L123.008 78.7223Z" fill="#5B548F"/>
<path d="M146.13 52.7073C146.211 52.7728 146.194 53.4022 145.873 54.4246C145.665 55.0838 145.182 56.3536 144.292 57.4524L125.468 80.68L123.047 78.718L141.871 55.4904C142.792 54.354 143.914 53.6213 144.502 53.2858C145.398 52.7736 146.023 52.6206 146.13 52.7073V52.7073ZM146.165 52.6646C145.861 52.4184 143.405 53.5093 141.828 55.4557L122.969 78.726L125.474 80.756L144.333 57.4857C145.875 55.5829 146.423 52.8737 146.165 52.6646Z" fill="#5B548F"/>
<path d="M141.257 56.1461C141.206 56.1047 141.174 56.0448 141.167 55.9795C141.16 55.9143 141.179 55.849 141.22 55.798C141.262 55.7471 141.321 55.7147 141.387 55.708C141.452 55.7012 141.517 55.7207 141.568 55.7621L144.05 57.7734C144.101 57.8147 144.134 57.8747 144.141 57.9399C144.148 58.0052 144.128 58.0705 144.087 58.1214C144.046 58.1724 143.986 58.2048 143.921 58.2115C143.855 58.2183 143.79 58.1988 143.739 58.1574L141.257 56.1461Z" fill="#5B548F"/>
<path d="M144.033 57.7947C144.078 57.8315 144.107 57.8848 144.113 57.9428C144.12 58.0008 144.102 58.0588 144.066 58.1041C144.029 58.1494 143.976 58.1782 143.918 58.1842C143.86 58.1902 143.802 58.1729 143.756 58.1361L141.274 56.1248C141.229 56.088 141.2 56.0347 141.194 55.9767C141.188 55.9187 141.205 55.8607 141.242 55.8154C141.278 55.7701 141.332 55.7413 141.39 55.7353C141.448 55.7293 141.506 55.7466 141.551 55.7834L144.033 57.7947ZM144.067 57.752L141.586 55.7407C141.529 55.6948 141.456 55.6731 141.384 55.6806C141.311 55.6881 141.245 55.7241 141.199 55.7807C141.153 55.8373 141.132 55.9098 141.139 55.9824C141.147 56.0549 141.183 56.1215 141.24 56.1675L143.722 58.1788C143.778 58.2247 143.851 58.2464 143.924 58.2389C143.996 58.2314 144.063 58.1954 144.109 58.1388V58.1388C144.154 58.0822 144.176 58.0097 144.168 57.9371C144.16 57.8646 144.124 57.798 144.067 57.752V57.752Z" fill="#5B548F"/>
<path d="M140.669 56.8716C140.618 56.8302 140.586 56.7703 140.579 56.705C140.572 56.6397 140.591 56.5744 140.632 56.5235C140.674 56.4726 140.733 56.4402 140.799 56.4334C140.864 56.4267 140.929 56.4461 140.981 56.4875L143.462 58.4988C143.513 58.5402 143.546 58.6001 143.553 58.6654C143.56 58.7307 143.54 58.7959 143.499 58.8469C143.458 58.8978 143.398 58.9302 143.333 58.937C143.267 58.9437 143.202 58.9242 143.151 58.8829L140.669 56.8716Z" fill="#5B548F"/>
<path d="M143.445 58.5201C143.49 58.5569 143.519 58.6102 143.525 58.6682C143.532 58.7262 143.515 58.7843 143.478 58.8296C143.441 58.8748 143.388 58.9036 143.33 58.9096C143.272 58.9156 143.214 58.8983 143.168 58.8615L140.687 56.8503C140.641 56.8135 140.612 56.7602 140.606 56.7022C140.6 56.6441 140.617 56.5861 140.654 56.5408C140.69 56.4956 140.744 56.4668 140.802 56.4608C140.86 56.4548 140.918 56.4721 140.963 56.5089L143.445 58.5201ZM143.48 58.4775L140.998 56.4662C140.941 56.4202 140.868 56.3986 140.796 56.4061C140.723 56.4136 140.657 56.4496 140.611 56.5062C140.565 56.5628 140.544 56.6353 140.551 56.7078C140.559 56.7804 140.595 56.8469 140.652 56.8929L143.134 58.9042C143.19 58.9502 143.263 58.9718 143.336 58.9643C143.408 58.9568 143.475 58.9208 143.521 58.8642V58.8642C143.566 58.8076 143.588 58.7351 143.58 58.6626C143.573 58.59 143.536 58.5235 143.48 58.4775Z" fill="#5B548F"/>
<path d="M131.505 68.1801C131.454 68.1387 131.421 68.0787 131.414 68.0135C131.407 67.9482 131.426 67.8829 131.468 67.832C131.509 67.7811 131.569 67.7486 131.634 67.7419C131.699 67.7352 131.765 67.7546 131.816 67.796L134.298 69.8073C134.349 69.8487 134.381 69.9086 134.388 69.9739C134.395 70.0391 134.376 70.1044 134.335 70.1554C134.293 70.2063 134.233 70.2387 134.168 70.2454C134.103 70.2522 134.037 70.2327 133.986 70.1913L131.505 68.1801Z" fill="#5B548F"/>
<path d="M134.28 69.8286C134.326 69.8654 134.355 69.9187 134.361 69.9767C134.367 70.0347 134.35 70.0928 134.313 70.138C134.277 70.1833 134.223 70.2121 134.165 70.2181C134.107 70.2241 134.049 70.2068 134.004 70.17L131.522 68.1587C131.477 68.1219 131.448 68.0687 131.441 68.0106C131.435 67.9526 131.452 67.8946 131.489 67.8493C131.526 67.804 131.579 67.7752 131.637 67.7692C131.695 67.7632 131.753 67.7805 131.799 67.8173L134.28 69.8286ZM134.315 69.7859L131.833 67.7747C131.776 67.7287 131.704 67.7071 131.631 67.7146C131.559 67.722 131.492 67.7581 131.446 67.8146C131.4 67.8712 131.379 67.9438 131.387 68.0163C131.394 68.0888 131.431 68.1554 131.487 68.2014L133.969 70.2127C134.026 70.2587 134.099 70.2803 134.171 70.2728C134.244 70.2653 134.31 70.2293 134.356 70.1727C134.402 70.1161 134.423 70.0436 134.416 69.971C134.408 69.8985 134.372 69.8319 134.315 69.7859Z" fill="#5B548F"/>
<path d="M130.917 68.9055C130.866 68.8641 130.833 68.8042 130.826 68.7389C130.819 68.6737 130.838 68.6084 130.88 68.5574C130.921 68.5065 130.981 68.4741 131.046 68.4674C131.112 68.4606 131.177 68.4801 131.228 68.5215L133.71 70.5327C133.761 70.5741 133.793 70.634 133.8 70.6993C133.807 70.7646 133.788 70.8299 133.747 70.8808C133.705 70.9317 133.646 70.9642 133.58 70.9709C133.515 70.9776 133.45 70.9582 133.398 70.9168L130.917 68.9055Z" fill="#5B548F"/>
<path d="M133.692 70.5541C133.738 70.5909 133.767 70.6441 133.773 70.7022C133.779 70.7602 133.762 70.8182 133.725 70.8635C133.689 70.9088 133.635 70.9376 133.577 70.9436C133.519 70.9496 133.461 70.9323 133.416 70.8955L130.934 68.8842C130.889 68.8474 130.86 68.7941 130.853 68.7361C130.847 68.6781 130.864 68.6201 130.901 68.5748C130.938 68.5295 130.991 68.5007 131.049 68.4947C131.107 68.4887 131.165 68.506 131.211 68.5428L133.692 70.5541ZM133.727 70.5114L131.245 68.5001C131.189 68.4541 131.116 68.4325 131.043 68.44C130.971 68.4475 130.904 68.4835 130.858 68.5401C130.813 68.5967 130.791 68.6692 130.799 68.7418C130.806 68.8143 130.843 68.8809 130.899 68.9269L133.381 70.9381C133.438 70.9841 133.511 71.0058 133.583 70.9983C133.656 70.9908 133.722 70.9548 133.768 70.8982C133.814 70.8416 133.835 70.769 133.828 70.6965C133.82 70.624 133.784 70.5574 133.727 70.5114Z" fill="#5B548F"/>
<path d="M126.745 79.1701L124.263 77.1589C124.157 77.0727 124.001 77.0888 123.915 77.1948L123.881 77.2375C123.795 77.3436 123.811 77.4994 123.918 77.5856L126.399 79.5969C126.506 79.6831 126.662 79.6669 126.748 79.5609L126.782 79.5182C126.868 79.4122 126.852 79.2563 126.745 79.1701Z" fill="#5B548F"/>
<path d="M126.728 79.1915C126.773 79.2283 126.802 79.2815 126.808 79.3396C126.815 79.3976 126.797 79.4556 126.761 79.5009L126.726 79.5436C126.69 79.5888 126.636 79.6176 126.578 79.6236C126.52 79.6296 126.462 79.6123 126.417 79.5755L123.935 77.5642C123.89 77.5275 123.861 77.4742 123.854 77.4162C123.848 77.3581 123.865 77.3001 123.902 77.2548L123.937 77.2122C123.973 77.1669 124.027 77.1381 124.085 77.1321C124.143 77.1261 124.201 77.1434 124.246 77.1802L126.728 79.1915ZM126.763 79.1488L124.281 77.1375C124.224 77.0915 124.151 77.0699 124.079 77.0774C124.006 77.0849 123.94 77.1209 123.894 77.1775L123.859 77.2202C123.813 77.2768 123.792 77.3493 123.8 77.4218C123.807 77.4944 123.844 77.5609 123.9 77.6069L126.382 79.6182C126.439 79.6642 126.512 79.6858 126.584 79.6783C126.657 79.6708 126.723 79.6348 126.769 79.5782L126.804 79.5356C126.849 79.479 126.871 79.4064 126.863 79.3339C126.856 79.2614 126.819 79.1948 126.763 79.1488V79.1488Z" fill="#5B548F"/>
<path d="M126.227 79.8102L123.745 77.7989C123.638 77.7128 123.483 77.7289 123.397 77.8349L123.362 77.8776C123.276 77.9837 123.293 78.1395 123.399 78.2257L125.881 80.237C125.987 80.3231 126.143 80.307 126.229 80.201L126.263 80.1583C126.349 80.0523 126.333 79.8964 126.227 79.8102Z" fill="#5B548F"/>
<path d="M126.209 79.8316C126.255 79.8684 126.284 79.9216 126.29 79.9797C126.296 80.0377 126.279 80.0957 126.242 80.141L126.207 80.1837C126.171 80.2289 126.118 80.2577 126.06 80.2637C126.001 80.2697 125.943 80.2524 125.898 80.2156L123.416 78.2044C123.371 78.1676 123.342 78.1143 123.336 78.0563C123.33 77.9983 123.347 77.9402 123.383 77.895L123.418 77.8523C123.455 77.807 123.508 77.7782 123.566 77.7722C123.624 77.7662 123.682 77.7835 123.727 77.8203L126.209 79.8316ZM126.244 79.7889L123.762 77.7776C123.705 77.7316 123.633 77.71 123.56 77.7175C123.488 77.725 123.421 77.761 123.375 77.8176L123.341 77.8603C123.295 77.9169 123.273 77.9894 123.281 78.0619C123.289 78.1345 123.325 78.201 123.382 78.247L125.863 80.2583C125.92 80.3043 125.993 80.3259 126.065 80.3184C126.138 80.3109 126.204 80.2749 126.25 80.2183L126.285 80.1757C126.331 80.1191 126.352 80.0465 126.344 79.974C126.337 79.9015 126.301 79.8349 126.244 79.7889V79.7889Z" fill="#5B548F"/>
<path d="M119.248 85.7852C118.982 85.5692 120.228 83.3829 123.063 79.756L124.357 80.8046C121.395 84.3286 119.515 86.0016 119.248 85.7852Z" fill="#5B548F"/>
<path d="M124.318 80.809C123.062 82.3034 121.858 83.6231 120.924 84.5314C119.517 85.897 119.287 85.7816 119.266 85.7639C119.244 85.7462 119.083 85.5454 120.129 83.887C120.823 82.7854 121.865 81.3347 123.067 79.795L124.318 80.809ZM124.396 80.801L123.058 79.717C120.56 82.9111 118.896 85.5347 119.231 85.8066C119.566 86.0784 121.788 83.9063 124.396 80.801Z" fill="#5B548F"/>
<path d="M121.33 83.2167C121.191 83.104 121.911 81.8823 123.358 80.0305L124.027 80.5732C122.515 82.3716 121.469 83.3294 121.33 83.2167Z" fill="#5B548F"/>
<path d="M123.988 80.5768C123.341 81.346 122.717 82.0305 122.229 82.5075C121.518 83.2035 121.364 83.1987 121.348 83.1949C121.34 83.1792 121.302 83.0318 121.837 82.1899C122.203 81.614 122.744 80.8622 123.362 80.0695L123.988 80.5768ZM124.066 80.5688L123.351 79.9901C122.02 81.6929 121.132 83.0917 121.311 83.2366C121.49 83.3816 122.676 82.2217 124.064 80.5678L124.066 80.5688Z" fill="#5B548F"/>
<path d="M126.238 90.1066C125.925 89.8528 127.058 87.8867 128.877 85.5287L130.171 86.577C128.24 88.8445 126.552 90.3608 126.238 90.1066Z" fill="#5B548F"/>
<path d="M130.132 86.5813C129.201 87.6734 128.295 88.6273 127.578 89.2679C126.759 89.9988 126.359 90.1689 126.256 90.0853C126.152 90.0017 126.236 89.5747 126.782 88.6229C127.261 87.7883 128.006 86.7045 128.882 85.5677L130.132 86.5813ZM130.21 86.5733L128.872 85.4893C127.042 87.8598 125.885 89.8561 126.221 90.128C126.556 90.3999 128.27 88.8551 130.21 86.5733Z" fill="#5B548F"/>
<path d="M135.409 88.7014L154.251 65.4524C155.831 63.5027 158.273 62.4421 158.548 62.665C158.768 62.8433 158.288 65.5036 156.712 67.4474L137.871 90.6964L135.409 88.7014Z" fill="#5B548F"/>
<path d="M158.531 62.6864C158.612 62.7519 158.595 63.3812 158.274 64.4036C158.066 65.0629 157.583 66.3326 156.693 67.4315L137.868 90.6591L135.447 88.6971L154.272 65.4694C155.193 64.333 156.315 63.6004 156.903 63.2648C157.799 62.7527 158.424 62.5997 158.531 62.6864V62.6864ZM158.566 62.6437C158.262 62.3975 155.806 63.4884 154.229 65.4347L135.37 88.7051L137.875 90.7351L156.734 67.4648C158.276 65.5619 158.824 62.8528 158.566 62.6437V62.6437Z" fill="#5B548F"/>
<path d="M153.658 66.1252C153.607 66.0838 153.574 66.0239 153.567 65.9586C153.56 65.8933 153.58 65.8281 153.621 65.7771C153.662 65.7262 153.722 65.6938 153.787 65.687C153.853 65.6803 153.918 65.6998 153.969 65.7411L156.451 67.7524C156.502 67.7938 156.535 67.8537 156.541 67.919C156.548 67.9843 156.529 68.0496 156.488 68.1005C156.447 68.1514 156.387 68.1838 156.321 68.1906C156.256 68.1973 156.191 68.1779 156.14 68.1365L153.658 66.1252Z" fill="#5B548F"/>
<path d="M156.434 67.7738C156.479 67.8106 156.508 67.8638 156.514 67.9219C156.52 67.9799 156.503 68.0379 156.466 68.0832C156.43 68.1284 156.377 68.1573 156.318 68.1632C156.26 68.1692 156.202 68.1519 156.157 68.1152L153.675 66.1039C153.63 66.0671 153.601 66.0138 153.595 65.9558C153.589 65.8978 153.606 65.8397 153.642 65.7945C153.679 65.7492 153.732 65.7204 153.79 65.7144C153.848 65.7084 153.906 65.7257 153.952 65.7625L156.434 67.7738ZM156.468 67.7311L153.986 65.7198C153.93 65.6738 153.857 65.6522 153.784 65.6597C153.712 65.6672 153.645 65.7032 153.6 65.7598C153.554 65.8164 153.532 65.8889 153.54 65.9615C153.548 66.034 153.584 66.1006 153.641 66.1465L156.122 68.1578C156.179 68.2038 156.252 68.2254 156.324 68.2179C156.397 68.2104 156.463 68.1744 156.509 68.1179V68.1179C156.555 68.0613 156.577 67.9887 156.569 67.9162C156.561 67.8437 156.525 67.7771 156.468 67.7311V67.7311Z" fill="#5B548F"/>
<path d="M153.07 66.8507C153.019 66.8093 152.986 66.7493 152.979 66.6841C152.972 66.6188 152.992 66.5535 153.033 66.5026C153.074 66.4516 153.134 66.4192 153.199 66.4125C153.265 66.4057 153.33 66.4252 153.381 66.4666L155.863 68.4779C155.914 68.5193 155.947 68.5792 155.954 68.6445C155.96 68.7097 155.941 68.775 155.9 68.826C155.859 68.8769 155.799 68.9093 155.733 68.916C155.668 68.9228 155.603 68.9033 155.552 68.8619L153.07 66.8507Z" fill="#5B548F"/>
<path d="M155.846 68.4992C155.891 68.536 155.92 68.5893 155.926 68.6473C155.932 68.7053 155.915 68.7634 155.879 68.8086C155.842 68.8539 155.789 68.8827 155.731 68.8887C155.673 68.8947 155.614 68.8774 155.569 68.8406L153.087 66.8293C153.042 66.7925 153.013 66.7393 153.007 66.6813C153.001 66.6232 153.018 66.5652 153.054 66.5199C153.091 66.4747 153.144 66.4459 153.202 66.4399C153.26 66.4339 153.319 66.4512 153.364 66.4879L155.846 68.4992ZM155.88 68.4566L153.399 66.4453C153.342 66.3993 153.269 66.3777 153.197 66.3852C153.124 66.3927 153.057 66.4287 153.012 66.4852C152.966 66.5418 152.944 66.6144 152.952 66.6869C152.96 66.7594 152.996 66.826 153.053 66.872L155.534 68.8833C155.591 68.9293 155.664 68.9509 155.736 68.9434C155.809 68.9359 155.875 68.8999 155.921 68.8433V68.8433C155.967 68.7867 155.989 68.7142 155.981 68.6417C155.973 68.5691 155.937 68.5025 155.88 68.4566V68.4566Z" fill="#5B548F"/>
<path d="M143.905 78.1591C143.854 78.1178 143.822 78.0578 143.815 77.9926C143.808 77.9273 143.827 77.862 143.868 77.8111C143.91 77.7601 143.97 77.7277 144.035 77.721C144.1 77.7142 144.166 77.7337 144.217 77.7751L146.698 79.7864C146.749 79.8278 146.782 79.8877 146.789 79.953C146.796 80.0182 146.777 80.0835 146.735 80.1344C146.694 80.1854 146.634 80.2178 146.569 80.2245C146.504 80.2313 146.438 80.2118 146.387 80.1704L143.905 78.1591Z" fill="#5B548F"/>
<path d="M146.681 79.8077C146.726 79.8445 146.755 79.8978 146.762 79.9558C146.768 80.0138 146.751 80.0718 146.714 80.1171C146.677 80.1624 146.624 80.1912 146.566 80.1972C146.508 80.2032 146.45 80.1859 146.404 80.1491L143.923 78.1378C143.877 78.101 143.848 78.0478 143.842 77.9897C143.836 77.9317 143.853 77.8737 143.89 77.8284C143.927 77.7831 143.98 77.7543 144.038 77.7483C144.096 77.7423 144.154 77.7596 144.199 77.7964L146.681 79.8077ZM146.716 79.765L144.234 77.7538C144.177 77.7078 144.105 77.6861 144.032 77.6936C143.959 77.7011 143.893 77.7371 143.847 77.7937C143.801 77.8503 143.78 77.9229 143.787 77.9954C143.795 78.0679 143.831 78.1345 143.888 78.1805L146.37 80.1918C146.427 80.2378 146.499 80.2594 146.572 80.2519C146.644 80.2444 146.711 80.2084 146.757 80.1518C146.803 80.0952 146.824 80.0227 146.816 79.9501C146.809 79.8776 146.772 79.811 146.716 79.765V79.765Z" fill="#5B548F"/>
<path d="M143.317 78.8846C143.266 78.8432 143.234 78.7833 143.227 78.718C143.22 78.6527 143.239 78.5874 143.28 78.5365C143.322 78.4856 143.382 78.4532 143.447 78.4464C143.512 78.4397 143.578 78.4591 143.629 78.5005L146.11 80.5118C146.162 80.5532 146.194 80.6131 146.201 80.6784C146.208 80.7437 146.189 80.809 146.147 80.8599C146.106 80.9108 146.046 80.9432 145.981 80.95C145.916 80.9567 145.85 80.9373 145.799 80.8959L143.317 78.8846Z" fill="#5B548F"/>
<path d="M146.093 80.5332C146.139 80.5699 146.168 80.6232 146.174 80.6812C146.18 80.7393 146.163 80.7973 146.126 80.8426C146.089 80.8878 146.036 80.9166 145.978 80.9226C145.92 80.9286 145.862 80.9113 145.816 80.8745L143.335 78.8632C143.289 78.8265 143.26 78.7732 143.254 78.7152C143.248 78.6571 143.265 78.5991 143.302 78.5538C143.339 78.5086 143.392 78.4798 143.45 78.4738C143.508 78.4678 143.566 78.4851 143.611 78.5219L146.093 80.5332ZM146.128 80.4905L143.646 78.4792C143.589 78.4332 143.517 78.4116 143.444 78.4191C143.371 78.4266 143.305 78.4626 143.259 78.5192C143.213 78.5758 143.192 78.6483 143.199 78.7208C143.207 78.7934 143.243 78.8599 143.3 78.9059L145.782 80.9172C145.839 80.9632 145.911 80.9848 145.984 80.9773C146.056 80.9698 146.123 80.9338 146.169 80.8772C146.215 80.8206 146.236 80.7481 146.228 80.6756C146.221 80.603 146.184 80.5365 146.128 80.4905V80.4905Z" fill="#5B548F"/>
<path d="M139.146 89.1492L136.664 87.1379C136.558 87.0518 136.402 87.0679 136.316 87.1739L136.281 87.2166C136.196 87.3226 136.212 87.4785 136.318 87.5647L138.8 89.576C138.907 89.6621 139.062 89.646 139.148 89.54L139.183 89.4973C139.269 89.3912 139.252 89.2354 139.146 89.1492Z" fill="#5B548F"/>
<path d="M139.129 89.1706C139.174 89.2073 139.203 89.2606 139.209 89.3186C139.215 89.3767 139.198 89.4347 139.162 89.48L139.127 89.5226C139.09 89.5679 139.037 89.5967 138.979 89.6027C138.921 89.6087 138.863 89.5914 138.817 89.5546L136.336 87.5433C136.29 87.5065 136.261 87.4533 136.255 87.3953C136.249 87.3372 136.266 87.2792 136.303 87.2339L136.337 87.1913C136.374 87.146 136.427 87.1172 136.485 87.1112C136.543 87.1052 136.602 87.1225 136.647 87.1593L139.129 89.1706ZM139.163 89.1279L136.681 87.1166C136.625 87.0706 136.552 87.049 136.48 87.0565C136.407 87.064 136.34 87.1 136.295 87.1566L136.26 87.1992C136.214 87.2558 136.193 87.3284 136.2 87.4009C136.208 87.4734 136.244 87.54 136.301 87.586L138.783 89.5973C138.84 89.6433 138.912 89.6649 138.985 89.6574C139.057 89.6499 139.124 89.6139 139.17 89.5573L139.204 89.5146C139.25 89.458 139.272 89.3855 139.264 89.313C139.256 89.2404 139.22 89.1739 139.163 89.1279Z" fill="#5B548F"/>
<path d="M138.627 89.7893L136.145 87.778C136.039 87.6919 135.883 87.708 135.797 87.814L135.763 87.8567C135.677 87.9628 135.693 88.1186 135.8 88.2048L138.281 90.2161C138.388 90.3022 138.544 90.2861 138.63 90.1801L138.664 90.1374C138.75 90.0313 138.734 89.8755 138.627 89.7893Z" fill="#5B548F"/>
<path d="M138.61 89.8107C138.655 89.8474 138.684 89.9007 138.69 89.9587C138.697 90.0168 138.679 90.0748 138.643 90.1201L138.608 90.1627C138.571 90.208 138.518 90.2368 138.46 90.2428C138.402 90.2488 138.344 90.2315 138.299 90.1947L135.817 88.1834C135.772 88.1466 135.743 88.0934 135.736 88.0354C135.73 87.9773 135.747 87.9193 135.784 87.874L135.819 87.8314C135.855 87.7861 135.909 87.7573 135.967 87.7513C136.025 87.7453 136.083 87.7626 136.128 87.7994L138.61 89.8107ZM138.645 89.768L136.163 87.7567C136.106 87.7107 136.033 87.6891 135.961 87.6966C135.888 87.7041 135.822 87.7401 135.776 87.7967L135.741 87.8394C135.695 87.8959 135.674 87.9685 135.682 88.041C135.689 88.1135 135.726 88.1801 135.782 88.2261L138.264 90.2374C138.321 90.2834 138.393 90.305 138.466 90.2975C138.539 90.29 138.605 90.254 138.651 90.1974L138.686 90.1547C138.731 90.0981 138.753 90.0256 138.745 89.9531C138.737 89.8806 138.701 89.814 138.645 89.768Z" fill="#5B548F"/>
<path d="M131.649 95.7643C131.382 95.5482 132.629 93.362 135.463 89.7351L136.757 90.7837C133.796 94.3077 131.916 95.9807 131.649 95.7643Z" fill="#5B548F"/>
<path d="M136.719 90.7881C135.463 92.2825 134.259 93.6021 133.324 94.5104C131.918 95.8761 131.688 95.7606 131.666 95.7429C131.644 95.7253 131.484 95.5245 132.529 93.8661C133.224 92.7645 134.265 91.3138 135.468 89.7741L136.719 90.7881ZM136.796 90.7801L135.459 89.696C132.961 92.8902 131.296 95.5137 131.632 95.7856C131.967 96.0575 134.189 93.8854 136.796 90.7801Z" fill="#5B548F"/>
<path d="M133.731 93.1958C133.592 93.0831 134.312 91.8614 135.758 90.0096L136.428 90.5523C134.916 92.3507 133.87 93.3085 133.731 93.1958Z" fill="#5B548F"/>
<path d="M136.389 90.5559C135.741 91.3251 135.118 92.0096 134.63 92.4866C133.918 93.1826 133.765 93.1777 133.748 93.174C133.741 93.1583 133.704 93.0105 134.238 92.169C134.604 91.5931 135.145 90.8413 135.763 90.0486L136.389 90.5559ZM136.466 90.5479L135.752 89.9691C134.42 91.6719 133.533 93.0708 133.712 93.2157C133.89 93.3607 135.076 92.2008 136.465 90.5469L136.466 90.5479Z" fill="#5B548F"/>
<path d="M147.828 56.698C147.934 56.784 148.09 56.7679 148.176 56.662C148.261 56.5561 148.245 56.4005 148.139 56.3144C148.032 56.2284 147.877 56.2445 147.791 56.3504C147.705 56.4563 147.722 56.6119 147.828 56.698Z" fill="#5B548F"/>
<path d="M148.121 56.3357C148.155 56.3631 148.18 56.3999 148.193 56.4414C148.206 56.4829 148.206 56.5273 148.194 56.5689C148.182 56.6105 148.157 56.6475 148.124 56.6753C148.091 56.703 148.05 56.7202 148.006 56.7246C147.963 56.7291 147.92 56.7206 147.881 56.7003C147.843 56.6801 147.811 56.6488 147.79 56.6106C147.769 56.5724 147.76 56.5289 147.764 56.4857C147.768 56.4424 147.785 56.4013 147.812 56.3676C147.849 56.3224 147.902 56.2937 147.96 56.2877C148.018 56.2817 148.076 56.299 148.121 56.3357ZM148.156 56.2931C148.114 56.2588 148.062 56.2379 148.008 56.2328C147.954 56.2277 147.9 56.2388 147.852 56.2646C147.804 56.2905 147.765 56.3299 147.74 56.3779C147.715 56.4259 147.704 56.4804 147.71 56.5344C147.716 56.5884 147.737 56.6395 147.772 56.6813C147.807 56.7231 147.853 56.7537 147.905 56.7693C147.958 56.7848 148.013 56.7845 148.065 56.7685C148.117 56.7525 148.163 56.7214 148.197 56.6793C148.243 56.6228 148.264 56.5503 148.256 56.4779C148.249 56.4055 148.213 56.339 148.156 56.2931V56.2931Z" fill="#5B548F"/>
<path d="M147.7 56.5939C147.806 56.68 147.961 56.6639 148.047 56.558C148.133 56.4521 148.117 56.2965 148.01 56.2104C147.904 56.1243 147.748 56.1404 147.663 56.2463C147.577 56.3522 147.593 56.5079 147.7 56.5939Z" fill="#5B548F"/>
<path d="M147.993 56.2317C148.027 56.2591 148.052 56.2958 148.065 56.3373C148.078 56.3788 148.078 56.4232 148.066 56.4648C148.053 56.5065 148.029 56.5435 147.996 56.5712C147.962 56.5989 147.921 56.6161 147.878 56.6206C147.835 56.625 147.791 56.6166 147.753 56.5963C147.714 56.576 147.683 56.5448 147.662 56.5066C147.641 56.4684 147.632 56.4249 147.636 56.3816C147.64 56.3384 147.657 56.2973 147.684 56.2636C147.721 56.2184 147.774 56.1896 147.832 56.1836C147.89 56.1776 147.948 56.1949 147.993 56.2317ZM148.028 56.189C147.985 56.1548 147.934 56.1338 147.88 56.1288C147.826 56.1237 147.771 56.1348 147.724 56.1606C147.676 56.1864 147.637 56.2258 147.612 56.2739C147.586 56.3219 147.576 56.3763 147.582 56.4303C147.587 56.4844 147.609 56.5355 147.644 56.5773C147.679 56.6191 147.725 56.6497 147.777 56.6652C147.829 56.6807 147.885 56.6805 147.937 56.6644C147.988 56.6484 148.034 56.6174 148.069 56.5753C148.114 56.5187 148.136 56.4463 148.128 56.3739C148.12 56.3014 148.084 56.235 148.028 56.189V56.189Z" fill="#5B548F"/>
<path d="M129.054 77.8954L146.737 56.0768C148.718 53.6316 151.656 52.2977 153.229 51.7227C155.446 50.9086 157.354 50.7032 157.746 51.0209C158.046 51.2636 158.257 53.0963 157.933 55.5316C157.706 57.2258 157.035 60.4274 155.081 62.8389L137.398 84.6574L129.054 77.8954Z" fill="#5B548F"/>
<path d="M157.729 51.0422C158.014 51.2735 158.225 53.1363 157.905 55.5278C157.68 57.2191 157.009 60.4156 155.059 62.8216L137.394 84.6188L129.093 77.8914L146.758 56.0941C148.736 53.6541 151.668 52.3231 153.24 51.7462C155.447 50.9375 157.344 50.7301 157.729 51.0422ZM157.763 50.9995C156.95 50.3407 150.146 51.8258 146.715 56.0595L129.016 77.8994L137.402 84.6961L155.102 62.8562C158.533 58.6226 158.405 51.5197 157.763 50.9995Z" fill="#5B548F"/>
<path d="M130.209 80.6694L141.13 67.1944C143.25 64.6656 147.015 63.3225 147.56 63.7642C147.898 64.0375 147.912 65.155 147.597 66.4803C147.222 68.0505 146.472 69.6119 145.538 70.7645L134.616 84.2408L130.209 80.6694Z" fill="#5B548F"/>
<path d="M147.543 63.7856C147.872 64.0523 147.883 65.1584 147.569 66.4749C147.195 68.0412 146.447 69.5988 145.515 70.7489L134.612 84.2021L130.248 80.6654L141.151 67.2121C142.415 65.7036 144.081 64.7913 144.961 64.382C146.329 63.7441 147.312 63.6007 147.542 63.7869L147.543 63.7856ZM147.577 63.7442C147.02 63.2934 143.25 64.6214 141.107 67.1783L130.17 80.6734L134.621 84.2798L145.558 70.7835C147.684 68.1603 148.262 64.2978 147.578 63.7429L147.577 63.7442Z" fill="#5B548F"/>
<path d="M126.928 78.6066C125.416 77.3815 123.475 75.7991 121.161 73.9019C123.495 71.0418 126.624 71.2439 129.936 71.4584C133.299 71.6759 136.767 71.9001 139.702 68.9555L129.933 81.0108C129.822 80.9283 129.211 80.4574 126.928 78.6066Z" fill="#5B548F"/>
<path d="M139.404 69.2795L129.928 80.9721C129.772 80.8522 129.114 80.3411 126.946 78.584C125.439 77.3627 123.506 75.7862 121.2 73.8971C123.524 71.0697 126.639 71.2713 129.936 71.4843C133.183 71.6957 136.53 71.9124 139.404 69.2795ZM140.415 68.1194C134.536 75.3739 126.033 67.8463 121.122 73.9059C123.749 76.0585 125.604 77.5696 126.91 78.628C129.52 80.7433 129.937 81.0494 129.937 81.0494L140.415 68.1194Z" fill="#5B548F"/>
<path d="M137.037 86.7949C134.99 85.1366 134.452 84.678 134.351 84.5908L144.113 72.5304C141.843 76.013 142.784 79.3585 143.695 82.6026C144.593 85.7981 145.44 88.817 143.127 91.6941C140.635 89.6995 138.586 88.0517 137.037 86.796L137.037 86.7949Z" fill="#5B548F"/>
<path d="M143.859 72.8894C141.881 76.2472 142.788 79.4757 143.668 82.6101C144.563 85.7922 145.406 88.7959 143.123 91.6558C140.64 89.6681 138.598 88.0258 137.053 86.7733C135.117 85.2045 134.531 84.7101 134.389 84.5876L143.858 72.8899L143.859 72.8894ZM146.06 70.0861L134.312 84.5952C134.312 84.5952 134.668 84.9126 137.017 86.8168C138.334 87.8835 140.274 89.4467 143.131 91.7336C148.039 85.6699 138.908 78.9172 144.783 71.6592C145.679 70.5544 146.058 70.0858 146.058 70.0858L146.06 70.0861Z" fill="#5B548F"/>
<path d="M127.869 81.2827L129.892 78.7863C130.163 78.4528 130.555 78.2406 130.983 78.1964C131.411 78.1522 131.84 78.2795 132.175 78.5504L135.94 81.602C136.274 81.8736 136.488 82.2663 136.533 82.6941C136.578 83.1219 136.452 83.5498 136.182 83.8838L134.159 86.3802L127.869 81.2827Z" fill="#5B548F"/>
<path d="M135.923 81.6233C136.252 81.89 136.462 82.2762 136.506 82.6969C136.551 83.1176 136.427 83.5383 136.161 83.8665L134.155 86.3416L127.908 81.2787L129.913 78.8036C130.179 78.4754 130.565 78.2666 130.986 78.2231C131.407 78.1796 131.828 78.305 132.157 78.5717L135.923 81.6233ZM135.957 81.5806L132.192 78.529C131.851 78.2531 131.416 78.1234 130.98 78.1684C130.545 78.2134 130.146 78.4294 129.871 78.7689L127.83 81.2867L134.163 86.4189L136.203 83.9012C136.479 83.5616 136.607 83.1264 136.561 82.6912C136.515 82.256 136.298 81.8566 135.957 81.5806Z" fill="#5B548F"/>
<path d="M129.89 85.2184C129.782 85.1309 129.714 85.0044 129.699 84.8666C129.684 84.7289 129.725 84.5911 129.812 84.4835L134.446 78.7653C134.533 78.6577 134.66 78.5893 134.798 78.5751C134.935 78.5608 135.073 78.6019 135.181 78.6893C135.289 78.7767 135.358 78.9032 135.372 79.041C135.387 79.1788 135.346 79.3166 135.259 79.4241L130.625 85.1424C130.538 85.2498 130.411 85.3181 130.274 85.3323C130.136 85.3466 129.998 85.3056 129.89 85.2184V85.2184Z" fill="#5B548F"/>
<path d="M135.164 78.7106C135.266 78.7934 135.331 78.9133 135.345 79.0438C135.359 79.1744 135.32 79.3049 135.238 79.4068L130.604 85.1251C130.521 85.2269 130.401 85.2917 130.271 85.3052C130.14 85.3187 130.009 85.2798 129.907 85.197C129.805 85.1142 129.74 84.9944 129.726 84.8638C129.712 84.7333 129.751 84.6027 129.833 84.5009L134.468 78.7826C134.55 78.6808 134.67 78.6159 134.8 78.6024C134.931 78.589 135.062 78.6279 135.164 78.7106ZM135.199 78.668C135.085 78.576 134.94 78.5328 134.795 78.5478C134.65 78.5627 134.517 78.6348 134.425 78.7479L129.791 84.4662C129.699 84.5794 129.656 84.7244 129.671 84.8695C129.687 85.0146 129.759 85.1477 129.873 85.2397C129.986 85.3317 130.131 85.3749 130.277 85.3599C130.422 85.3449 130.555 85.2729 130.646 85.1597L135.281 79.4415C135.372 79.3283 135.415 79.1832 135.4 79.0382C135.384 78.8931 135.312 78.7599 135.199 78.668V78.668Z" fill="#5B548F"/>
<path d="M145.277 68.0998C145.238 67.7981 145.084 67.5228 144.847 67.331C144.61 67.1392 144.309 67.0457 144.006 67.0699L143.954 66.5775C144.388 66.54 144.82 66.6725 145.158 66.947C145.497 67.2215 145.716 67.6164 145.769 68.0486L145.277 68.0998Z" fill="#5B548F"/>
<path d="M145.143 66.9661C145.469 67.2292 145.683 67.6072 145.74 68.0222L145.302 68.0675C145.257 67.7691 145.101 67.4982 144.867 67.3079C144.632 67.1176 144.334 67.0217 144.033 67.039L143.986 66.6005C144.403 66.5702 144.817 66.7009 145.142 66.9658L145.143 66.9661ZM145.177 66.9231C145.003 66.7813 144.803 66.6754 144.588 66.6114C144.373 66.5474 144.148 66.5267 143.925 66.5504L143.983 67.0973C144.134 67.0817 144.286 67.096 144.432 67.1393C144.577 67.1826 144.713 67.2541 144.831 67.3498C144.949 67.4454 145.047 67.5633 145.12 67.6967C145.192 67.8301 145.238 67.9764 145.254 68.1272L145.801 68.0707C145.778 67.8479 145.711 67.6317 145.604 67.4347C145.497 67.2377 145.352 67.0638 145.177 66.9231V66.9231Z" fill="#5B548F"/>
<path d="M138.784 74.8559C138.902 74.9515 139.075 74.9336 139.17 74.8159C139.265 74.6983 139.247 74.5254 139.129 74.4297C139.011 74.3341 138.838 74.352 138.743 74.4697C138.647 74.5873 138.666 74.7602 138.784 74.8559Z" fill="#5B548F"/>
<path d="M139.337 74.1731C139.455 74.2687 139.628 74.2509 139.723 74.1332C139.819 74.0155 139.8 73.8426 139.682 73.747C139.564 73.6513 139.391 73.6692 139.296 73.7869C139.201 73.9046 139.219 74.0775 139.337 74.1731Z" fill="#5B548F"/>
<path d="M139.89 73.4903C140.008 73.5859 140.181 73.5681 140.277 73.4504C140.372 73.3327 140.354 73.1598 140.236 73.0642C140.118 72.9686 139.945 72.9864 139.849 73.1041C139.754 73.2218 139.772 73.3947 139.89 73.4903Z" fill="#5B548F"/>
<path d="M140.444 72.8075C140.562 72.9032 140.735 72.8853 140.83 72.7676C140.925 72.6499 140.907 72.477 140.789 72.3814C140.671 72.2858 140.498 72.3037 140.403 72.4213C140.307 72.539 140.326 72.7119 140.444 72.8075Z" fill="#5B548F"/>
<path d="M140.997 72.1248C141.115 72.2204 141.288 72.2025 141.383 72.0848C141.479 71.9672 141.46 71.7942 141.342 71.6986C141.224 71.603 141.051 71.6209 140.956 71.7386C140.861 71.8562 140.879 72.0291 140.997 72.1248Z" fill="#5B548F"/>
<path d="M141.55 71.442C141.668 71.5376 141.841 71.5197 141.937 71.4021C142.032 71.2844 142.014 71.1115 141.896 71.0159C141.778 70.9202 141.605 70.9381 141.509 71.0558C141.414 71.1735 141.432 71.3464 141.55 71.442Z" fill="#5B548F"/>
<path d="M144.863 60.2691C144.981 60.3647 145.154 60.3469 145.249 60.2292C145.344 60.1115 145.326 59.9386 145.208 59.843C145.09 59.7473 144.917 59.7652 144.822 59.8829C144.726 60.0006 144.745 60.1735 144.863 60.2691Z" fill="#5B548F"/>
<path d="M145.416 59.5863C145.534 59.682 145.707 59.6641 145.802 59.5464C145.898 59.4287 145.879 59.2558 145.761 59.1602C145.643 59.0646 145.471 59.0825 145.375 59.2001C145.28 59.3178 145.298 59.4907 145.416 59.5863Z" fill="#5B548F"/>
<path d="M145.969 58.9036C146.087 58.9992 146.26 58.9813 146.356 58.8636C146.451 58.746 146.433 58.5731 146.315 58.4774C146.197 58.3818 146.024 58.3997 145.928 58.5174C145.833 58.635 145.851 58.8079 145.969 58.9036Z" fill="#5B548F"/>
<path d="M146.523 58.2208C146.641 58.3164 146.814 58.2985 146.909 58.1809C147.004 58.0632 146.986 57.8903 146.868 57.7946C146.75 57.699 146.577 57.7169 146.482 57.8346C146.386 57.9522 146.405 58.1252 146.523 58.2208Z" fill="#5B548F"/>
<path d="M147.076 57.538C147.194 57.6336 147.367 57.6158 147.462 57.4981C147.558 57.3804 147.539 57.2075 147.421 57.1119C147.303 57.0163 147.131 57.0341 147.035 57.1518C146.94 57.2695 146.958 57.4424 147.076 57.538Z" fill="#5B548F"/>
<path d="M147.629 56.8552C147.747 56.9509 147.92 56.933 148.016 56.8153C148.111 56.6976 148.093 56.5247 147.975 56.4291C147.857 56.3335 147.684 56.3513 147.588 56.469C147.493 56.5867 147.511 56.7596 147.629 56.8552Z" fill="#5B548F"/>
</g>
<defs>
<linearGradient id="paint0_linear" x1="166.55" y1="101.289" x2="166.55" y2="291.657" gradientUnits="userSpaceOnUse">
<stop stop-color="#ACA2FF"/>
<stop offset="0.359375" stop-color="#503CE9"/>
</linearGradient>
<linearGradient id="paint1_linear" x1="163.891" y1="111.97" x2="163.891" y2="293.081" gradientUnits="userSpaceOnUse">
<stop stop-color="#8577F4"/>
<stop offset="0.744792" stop-color="#503CE9"/>
</linearGradient>
<linearGradient id="paint2_linear" x1="171.55" y1="164.839" x2="171.55" y2="293.157" gradientUnits="userSpaceOnUse">
<stop stop-color="#8577F4"/>
<stop offset="0.0833333" stop-color="#9184FB"/>
<stop offset="0.744792" stop-color="#503CE9"/>
</linearGradient>
<linearGradient id="paint3_linear" x1="220.188" y1="8.2949" x2="220.74" y2="68.9359" gradientUnits="userSpaceOnUse">
<stop stop-color="#6C5BEF"/>
<stop offset="0.364583" stop-color="#30277A"/>
<stop offset="0.734375" stop-color="#0E0840"/>
</linearGradient>
<clipPath id="clip0">
<rect width="28.3232" height="51.3024" fill="white" transform="translate(146.852 42.1568) rotate(39.022)"/>
</clipPath>
</defs>
</svg>
