<svg width="335" height="314" viewBox="0 0 335 314" fill="none" xmlns="http://www.w3.org/2000/svg">
<path d="M334.999 158C334.999 243.604 265.603 313 179.999 313C94.3948 313 24.9989 243.604 24.9989 158C24.9989 72.3959 94.3948 2.99997 179.999 2.99997C265.603 2.99997 334.999 72.3959 334.999 158Z" fill="#0E0840"/>
<path d="M334.999 158C334.999 243.604 265.603 313 179.999 313C94.3948 313 24.9989 243.604 24.9989 158C24.9989 72.3959 94.3948 2.99997 179.999 2.99997C265.603 2.99997 334.999 72.3959 334.999 158Z" fill="#0E0840"/>
<path d="M331.499 126.5C347.499 269.5 285.603 116 199.999 116C114.395 116 126.5 143.5 37.5 97.5C53.5 43.5 130.568 0.999928 177.499 0.999954C217.499 0.999976 307.999 26.5 331.499 126.5Z" fill="url(#paint0_linear)"/>
<path d="M331.499 126.5C347.499 269.5 285.603 116 199.999 116C114.395 116 126.5 143.5 37.5 97.5C53.5 43.5 130.568 0.999928 177.499 0.999954C217.499 0.999976 307.999 26.5 331.499 126.5Z" fill="url(#paint1_linear)"/>
<path d="M138.999 110.5C129.038 149.478 204.582 201.496 166.5 236C128.418 270.504 97.5039 252.082 62.9999 214C27.9993 179 18.9992 161.5 27.9993 131.5C66.0813 96.9962 94.6415 132.5 138.999 110.5Z" fill="#332D64"/>
<path d="M138.999 110.5C129.038 149.478 204.582 201.496 166.5 236C128.418 270.504 97.5039 252.082 62.9999 214C27.9993 179 18.9992 161.5 27.9993 131.5C66.0813 96.9962 94.6415 132.5 138.999 110.5Z" fill="#332D64"/>
<path d="M145.081 115.5C135.12 154.478 209.202 206.496 171.12 241C133.038 275.504 102.123 257.082 67.6195 219C32.6189 184 23.6188 166.5 32.6188 136.5C70.7008 101.996 100.723 137.5 145.081 115.5Z" fill="#332D64"/>
<path d="M145.081 115.5C135.12 154.478 209.202 206.496 171.12 241C133.038 275.504 102.123 257.082 67.6195 219C32.6189 184 23.6188 166.5 32.6188 136.5C70.7008 101.996 100.723 137.5 145.081 115.5Z" fill="#332D64"/>
<path d="M132.461 106.173C122.499 145.15 196.581 197.169 158.499 231.673C120.417 266.177 89.5033 247.755 54.9993 209.673C19.9988 174.673 21 157.5 28.4998 124.5C66.5818 89.9961 88.103 128.173 132.461 106.173Z" fill="#332D64"/>
<path d="M132.461 106.173C122.499 145.15 196.581 197.169 158.499 231.673C120.417 266.177 89.5033 247.755 54.9993 209.673C19.9988 174.673 21 157.5 28.4998 124.5C66.5818 89.9961 88.103 128.173 132.461 106.173Z" fill="#332D64"/>
<path d="M335 156C328.5 219 348.603 54.5 262.999 54.5C177.395 54.5 127.499 145.5 38.4989 99.5C54 47.5 113.5 4.02342 177.999 0.999985C263.509 -3.00838 335 70.3959 335 156Z" fill="url(#paint2_linear)"/>
<path d="M335 156C328.5 219 348.603 54.5 262.999 54.5C177.395 54.5 127.499 145.5 38.4989 99.5C54 47.5 113.5 4.02342 177.999 0.999985C263.509 -3.00838 335 70.3959 335 156Z" fill="url(#paint3_linear)"/>
<path d="M334.999 165C334.999 250.604 265.603 311.5 179.999 311.5C94.3948 311.5 24.9989 239.5 24.9989 165C118.499 205 84.9989 208 179.999 179C242.499 138.5 334.999 79.3959 334.999 165Z" fill="url(#paint4_linear)"/>
<path d="M333.5 183.695C325 257 262.604 312.924 177 312.924C67.4097 309.653 23.9995 221.653 23.9995 160.924C23.9995 75.3199 129.485 183.695 215.089 183.695C300.693 183.695 333.5 165.695 333.5 183.695Z" fill="url(#paint5_linear)"/>
<path d="M312.5 243C280 293.5 228.535 311.182 185.453 313C102.5 316.5 56.9989 245.306 56.9989 224.541C56.9989 153.438 89.9989 193.5 168.499 222C248.747 240.273 211.5 230.686 312.5 243Z" fill="url(#paint6_linear)"/>
<path d="M169.999 7.99998L170.269 9.4598L170.999 9.99998L170.269 10.5402L169.999 12L169.729 10.5402L168.999 9.99998L169.729 9.4598L169.999 7.99998Z" fill="url(#paint7_linear)" fill-opacity="0.5"/>
<path d="M130.999 84L131.269 85.4598L131.999 86L131.269 86.5402L130.999 88L130.729 86.5402L129.999 86L130.729 85.4598L130.999 84Z" fill="url(#paint8_linear)" fill-opacity="0.5"/>
<path d="M185.999 132L186.269 133.46L186.999 134L186.269 134.54L185.999 136L185.729 134.54L184.999 134L185.729 133.46L185.999 132Z" fill="url(#paint9_linear)" fill-opacity="0.5"/>
<path d="M195.999 94L196.269 95.4598L196.999 96L196.269 96.5402L195.999 98L195.729 96.5402L194.999 96L195.729 95.4598L195.999 94Z" fill="url(#paint10_linear)" fill-opacity="0.5"/>
<path d="M286.999 85L287.269 86.4598L287.999 87L287.269 87.5402L286.999 89L286.729 87.5402L285.999 87L286.729 86.4598L286.999 85Z" fill="url(#paint11_linear)" fill-opacity="0.5"/>
<path d="M208.999 116L209.269 117.46L209.999 118L209.269 118.54L208.999 120L208.729 118.54L207.999 118L208.729 117.46L208.999 116Z" fill="url(#paint12_linear)" fill-opacity="0.5"/>
<path d="M258.999 36L259.269 37.4598L259.999 38L259.269 38.5402L258.999 40L258.729 38.5402L257.999 38L258.729 37.4598L258.999 36Z" fill="url(#paint13_linear)" fill-opacity="0.5"/>
<path d="M36.999 114L37.2691 115.46L37.999 116L37.2691 116.54L36.999 118L36.7289 116.54L35.999 116L36.7289 115.46L36.999 114Z" fill="url(#paint14_linear)" fill-opacity="0.5"/>
<path d="M71.999 77L72.2691 78.4598L72.999 79L72.2691 79.5402L71.999 81L71.7289 79.5402L70.999 79L71.7289 78.4598L71.999 77Z" fill="url(#paint15_linear)" fill-opacity="0.5"/>
<path d="M278.999 106L279.269 107.46L279.999 108L279.269 108.54L278.999 110L278.729 108.54L277.999 108L278.729 107.46L278.999 106Z" fill="url(#paint16_linear)" fill-opacity="0.5"/>
<path d="M109.999 33L110.269 34.4598L110.999 35L110.269 35.5402L109.999 37L109.729 35.5402L108.999 35L109.729 34.4598L109.999 33Z" fill="url(#paint17_linear)" fill-opacity="0.5"/>
<circle cx="233.637" cy="49.6381" r="21.5" transform="rotate(-147.901 233.637 49.6381)" fill="url(#paint18_linear)"/>
<g clip-path="url(#clip0)">
<path d="M161.299 77.1253C161.405 77.2113 161.561 77.1952 161.647 77.0893C161.733 76.9834 161.716 76.8278 161.61 76.7418C161.504 76.6557 161.348 76.6718 161.262 76.7777C161.177 76.8836 161.193 77.0392 161.299 77.1253Z" fill="#5B548F"/>
<path d="M161.593 76.763C161.627 76.7904 161.651 76.8272 161.664 76.8687C161.677 76.9102 161.678 76.9546 161.665 76.9962C161.653 77.0378 161.629 77.0748 161.595 77.1026C161.562 77.1303 161.521 77.1475 161.478 77.1519C161.435 77.1564 161.391 77.1479 161.352 77.1277C161.314 77.1074 161.282 77.0761 161.262 77.0379C161.241 76.9997 161.232 76.9562 161.236 76.913C161.24 76.8697 161.256 76.8287 161.284 76.7949C161.32 76.7497 161.373 76.721 161.431 76.715C161.489 76.709 161.547 76.7263 161.593 76.763ZM161.627 76.7204C161.585 76.6861 161.534 76.6652 161.479 76.6601C161.425 76.655 161.371 76.6661 161.323 76.692C161.276 76.7178 161.237 76.7572 161.211 76.8052C161.186 76.8532 161.176 76.9077 161.181 76.9617C161.187 77.0157 161.209 77.0668 161.244 77.1086C161.278 77.1505 161.325 77.1811 161.377 77.1966C161.429 77.2121 161.484 77.2118 161.536 77.1958C161.588 77.1798 161.634 77.1487 161.668 77.1066C161.691 77.0786 161.708 77.0464 161.718 77.0119C161.728 76.9773 161.732 76.9411 161.728 76.9052C161.724 76.8694 161.713 76.8346 161.696 76.8029C161.679 76.7711 161.655 76.7431 161.627 76.7204Z" fill="#5B548F"/>
<path d="M161.744 77.6267C161.85 77.7128 162.005 77.6967 162.091 77.5908C162.177 77.4849 162.161 77.3293 162.054 77.2432C161.948 77.1572 161.792 77.1732 161.707 77.2791C161.621 77.3851 161.637 77.5407 161.744 77.6267Z" fill="#5B548F"/>
<path d="M162.037 77.2645C162.071 77.2919 162.096 77.3287 162.109 77.3702C162.122 77.4117 162.122 77.456 162.11 77.4977C162.097 77.5393 162.073 77.5763 162.04 77.604C162.006 77.6318 161.965 77.6489 161.922 77.6534C161.879 77.6579 161.835 77.6494 161.797 77.6291C161.758 77.6088 161.727 77.5776 161.706 77.5394C161.685 77.5012 161.676 77.4577 161.68 77.4145C161.684 77.3712 161.701 77.3301 161.728 77.2964C161.765 77.2512 161.818 77.2224 161.876 77.2165C161.934 77.2105 161.992 77.2277 162.037 77.2645ZM162.072 77.2219C162.029 77.1876 161.978 77.1666 161.924 77.1616C161.87 77.1565 161.815 77.1676 161.768 77.1934C161.72 77.2193 161.681 77.2587 161.656 77.3067C161.63 77.3547 161.62 77.4092 161.626 77.4632C161.632 77.5172 161.653 77.5683 161.688 77.6101C161.723 77.6519 161.769 77.6825 161.821 77.698C161.873 77.7136 161.929 77.7133 161.981 77.6973C162.033 77.6813 162.078 77.6502 162.113 77.6081C162.158 77.5516 162.18 77.4791 162.172 77.4067C162.164 77.3343 162.128 77.2678 162.072 77.2219Z" fill="#5B548F"/>
<path d="M160.533 79.1203C160.639 79.2064 160.795 79.1903 160.881 79.0844C160.967 78.9785 160.95 78.8229 160.844 78.7368C160.738 78.6507 160.582 78.6668 160.496 78.7727C160.41 78.8786 160.427 79.0343 160.533 79.1203Z" fill="#5B548F"/>
<path d="M160.827 78.758C160.86 78.7854 160.885 78.8222 160.898 78.8637C160.911 78.9052 160.912 78.9496 160.899 78.9912C160.887 79.0329 160.863 79.0699 160.829 79.0976C160.796 79.1253 160.755 79.1425 160.712 79.147C160.668 79.1514 160.625 79.143 160.586 79.1227C160.548 79.1024 160.516 79.0712 160.495 79.033C160.475 78.9948 160.466 78.9513 160.47 78.908C160.474 78.8648 160.49 78.8237 160.518 78.79C160.554 78.7448 160.607 78.716 160.665 78.71C160.723 78.704 160.781 78.7213 160.827 78.758ZM160.861 78.7154C160.819 78.6812 160.767 78.6602 160.713 78.6551C160.659 78.6501 160.605 78.6612 160.557 78.687C160.509 78.7128 160.471 78.7522 160.445 78.8002C160.42 78.8483 160.41 78.9027 160.415 78.9567C160.421 79.0107 160.443 79.0619 160.477 79.1037C160.512 79.1455 160.559 79.1761 160.611 79.1916C160.663 79.2071 160.718 79.2068 160.77 79.1908C160.822 79.1748 160.868 79.1438 160.902 79.1016C160.948 79.0451 160.969 78.9727 160.962 78.9003C160.954 78.8278 160.918 78.7613 160.861 78.7154Z" fill="#5B548F"/>
<path d="M160.866 77.8347C160.972 77.9208 161.128 77.9047 161.214 77.7988C161.3 77.6929 161.283 77.5373 161.177 77.4512C161.071 77.3651 160.915 77.3812 160.829 77.4871C160.743 77.593 160.76 77.7487 160.866 77.8347Z" fill="#5B548F"/>
<path d="M161.16 77.4725C161.193 77.4999 161.218 77.5366 161.231 77.5781C161.244 77.6196 161.245 77.664 161.232 77.7057C161.22 77.7473 161.196 77.7843 161.162 77.812C161.129 77.8397 161.088 77.8569 161.045 77.8614C161.001 77.8659 160.958 77.8574 160.919 77.8371C160.881 77.8168 160.849 77.7856 160.828 77.7474C160.808 77.7092 160.799 77.6657 160.803 77.6224C160.807 77.5792 160.823 77.5381 160.851 77.5044C160.887 77.4592 160.94 77.4304 160.998 77.4244C161.056 77.4184 161.114 77.4357 161.16 77.4725ZM161.194 77.4298C161.152 77.3956 161.1 77.3746 161.046 77.3696C160.992 77.3645 160.938 77.3756 160.89 77.4014C160.842 77.4272 160.803 77.4666 160.778 77.5147C160.753 77.5627 160.743 77.6171 160.748 77.6711C160.754 77.7252 160.776 77.7763 160.81 77.8181C160.845 77.8599 160.892 77.8905 160.944 77.906C160.996 77.9215 161.051 77.9213 161.103 77.9052C161.155 77.8892 161.201 77.8582 161.235 77.8161C161.281 77.7595 161.302 77.6871 161.295 77.6147C161.287 77.5422 161.251 77.4758 161.194 77.4298Z" fill="#5B548F"/>
<path d="M161.454 77.1093C161.56 77.1953 161.716 77.1792 161.802 77.0733C161.887 76.9674 161.871 76.8118 161.765 76.7257C161.659 76.6397 161.503 76.6558 161.417 76.7617C161.331 76.8676 161.348 77.0232 161.454 77.1093Z" fill="#5B548F"/>
<path d="M161.748 76.747C161.781 76.7744 161.806 76.8112 161.819 76.8527C161.832 76.8942 161.832 76.9386 161.82 76.9802C161.808 77.0218 161.783 77.0588 161.75 77.0866C161.717 77.1143 161.676 77.1315 161.633 77.1359C161.589 77.1404 161.546 77.132 161.507 77.1117C161.469 77.0914 161.437 77.0601 161.416 77.0219C161.396 76.9837 161.387 76.9402 161.391 76.897C161.394 76.8537 161.411 76.8127 161.438 76.7789C161.475 76.7337 161.528 76.705 161.586 76.699C161.644 76.693 161.702 76.7103 161.748 76.747ZM161.782 76.7044C161.74 76.6701 161.688 76.6492 161.634 76.6441C161.58 76.639 161.526 76.6501 161.478 76.676C161.43 76.7018 161.391 76.7412 161.366 76.7892C161.341 76.8372 161.33 76.8917 161.336 76.9457C161.342 76.9997 161.364 77.0508 161.398 77.0927C161.433 77.1345 161.48 77.1651 161.532 77.1806C161.584 77.1961 161.639 77.1958 161.691 77.1798C161.743 77.1638 161.789 77.1327 161.823 77.0906C161.869 77.0341 161.89 76.9617 161.883 76.8892C161.875 76.8168 161.839 76.7503 161.782 76.7044Z" fill="#5B548F"/>
<path d="M160.98 76.5132C161.074 76.5897 161.213 76.5754 161.289 76.4813C161.365 76.3871 161.351 76.2488 161.256 76.1723C161.162 76.0958 161.024 76.1101 160.947 76.2042C160.871 76.2984 160.886 76.4367 160.98 76.5132Z" fill="#5B548F"/>
<path d="M136.457 98.5655L155.298 75.3165C156.879 73.3668 159.321 72.3062 159.596 72.5291C159.816 72.7074 159.335 75.3677 157.76 77.3115L138.919 100.56L136.457 98.5655Z" fill="#5B548F"/>
<path d="M159.579 72.5505C159.66 72.616 159.642 73.2454 159.322 74.2677C159.113 74.927 158.631 76.1967 157.74 77.2956L138.916 100.523L136.495 98.5612L155.319 75.3335C156.24 74.1971 157.363 73.4645 157.95 73.1289C158.847 72.6168 159.472 72.4638 159.579 72.5505ZM159.614 72.5078C159.31 72.2616 156.854 73.3525 155.277 75.2989L136.418 98.5692L138.923 100.599L157.781 77.3289C159.324 75.4261 159.872 72.7169 159.614 72.5078Z" fill="#5B548F"/>
<path d="M154.706 75.9893C154.655 75.9479 154.622 75.888 154.615 75.8227C154.608 75.7574 154.627 75.6922 154.669 75.6412C154.71 75.5903 154.77 75.5579 154.835 75.5511C154.9 75.5444 154.966 75.5638 155.017 75.6052L157.499 77.6165C157.55 77.6579 157.582 77.7178 157.589 77.7831C157.596 77.8484 157.577 77.9137 157.536 77.9646C157.494 78.0155 157.434 78.0479 157.369 78.0547C157.304 78.0614 157.238 78.042 157.187 78.0006L154.706 75.9893Z" fill="#5B548F"/>
<path d="M157.481 77.6379C157.527 77.6747 157.556 77.7279 157.562 77.7859C157.568 77.844 157.551 77.902 157.514 77.9473C157.478 77.9925 157.424 78.0213 157.366 78.0273C157.308 78.0333 157.25 78.016 157.205 77.9793L154.723 75.968C154.678 75.9312 154.649 75.8779 154.642 75.8199C154.636 75.7619 154.653 75.7038 154.69 75.6586C154.727 75.6133 154.78 75.5845 154.838 75.5785C154.896 75.5725 154.954 75.5898 155 75.6266L157.481 77.6379ZM157.516 77.5952L155.034 75.5839C154.977 75.5379 154.905 75.5163 154.832 75.5238C154.76 75.5313 154.693 75.5673 154.647 75.6239C154.601 75.6805 154.58 75.753 154.588 75.8255C154.595 75.8981 154.632 75.9647 154.688 76.0106L157.17 78.0219C157.227 78.0679 157.3 78.0895 157.372 78.082C157.445 78.0745 157.511 78.0385 157.557 77.9819C157.603 77.9254 157.624 77.8528 157.617 77.7803C157.609 77.7078 157.573 77.6412 157.516 77.5952Z" fill="#5B548F"/>
<path d="M154.118 76.7147C154.067 76.6734 154.034 76.6134 154.027 76.5482C154.02 76.4829 154.04 76.4176 154.081 76.3667C154.122 76.3157 154.182 76.2833 154.247 76.2766C154.313 76.2698 154.378 76.2893 154.429 76.3307L156.911 78.342C156.962 78.3834 156.994 78.4433 157.001 78.5086C157.008 78.5738 156.989 78.6391 156.948 78.69C156.906 78.741 156.847 78.7734 156.781 78.7801C156.716 78.7869 156.651 78.7674 156.6 78.726L154.118 76.7147Z" fill="#5B548F"/>
<path d="M156.894 78.3633C156.939 78.4001 156.968 78.4534 156.974 78.5114C156.98 78.5694 156.963 78.6275 156.926 78.6727C156.89 78.718 156.836 78.7468 156.778 78.7528C156.72 78.7588 156.662 78.7415 156.617 78.7047L154.135 76.6934C154.09 76.6566 154.061 76.6034 154.055 76.5453C154.048 76.4873 154.066 76.4293 154.102 76.384C154.139 76.3387 154.192 76.3099 154.25 76.3039C154.308 76.2979 154.366 76.3152 154.412 76.352L156.894 78.3633ZM156.928 78.3206L154.446 76.3094C154.39 76.2634 154.317 76.2418 154.244 76.2492C154.172 76.2567 154.105 76.2928 154.059 76.3493C154.014 76.4059 153.992 76.4785 154 76.551C154.008 76.6235 154.044 76.6901 154.1 76.7361L156.582 78.7474C156.639 78.7934 156.712 78.815 156.784 78.8075C156.857 78.8 156.923 78.764 156.969 78.7074C157.015 78.6508 157.036 78.5783 157.029 78.5057C157.021 78.4332 156.985 78.3666 156.928 78.3206Z" fill="#5B548F"/>
<path d="M144.953 88.0232C144.902 87.9818 144.869 87.9219 144.863 87.8566C144.856 87.7914 144.875 87.7261 144.916 87.6752C144.957 87.6242 145.017 87.5918 145.083 87.5851C145.148 87.5783 145.213 87.5978 145.264 87.6392L147.746 89.6505C147.797 89.6918 147.83 89.7518 147.837 89.817C147.844 89.8823 147.824 89.9476 147.783 89.9985C147.742 90.0495 147.682 90.0819 147.617 90.0886C147.551 90.0954 147.486 90.0759 147.435 90.0345L144.953 88.0232Z" fill="#5B548F"/>
<path d="M147.729 89.6718C147.774 89.7086 147.803 89.7618 147.809 89.8199C147.816 89.8779 147.798 89.9359 147.762 89.9812C147.725 90.0265 147.672 90.0553 147.614 90.0613C147.556 90.0673 147.498 90.05 147.452 90.0132L144.97 88.0019C144.925 87.9651 144.896 87.9118 144.89 87.8538C144.884 87.7958 144.901 87.7378 144.938 87.6925C144.974 87.6472 145.028 87.6184 145.086 87.6124C145.144 87.6064 145.202 87.6237 145.247 87.6605L147.729 89.6718ZM147.763 89.6291L145.282 87.6178C145.225 87.5718 145.152 87.5502 145.08 87.5577C145.007 87.5652 144.941 87.6012 144.895 87.6578C144.849 87.7144 144.828 87.7869 144.835 87.8595C144.843 87.932 144.879 87.9986 144.936 88.0446L147.418 90.0559C147.474 90.1018 147.547 90.1235 147.62 90.116C147.692 90.1085 147.759 90.0725 147.805 90.0159C147.85 89.9593 147.872 89.8867 147.864 89.8142C147.856 89.7417 147.82 89.6751 147.763 89.6291Z" fill="#5B548F"/>
<path d="M144.365 88.7487C144.314 88.7073 144.282 88.6474 144.275 88.5821C144.268 88.5168 144.287 88.4515 144.328 88.4006C144.37 88.3497 144.429 88.3173 144.495 88.3105C144.56 88.3038 144.625 88.3232 144.676 88.3646L147.158 90.3759C147.209 90.4173 147.242 90.4772 147.249 90.5425C147.256 90.6078 147.236 90.6731 147.195 90.724C147.154 90.7749 147.094 90.8073 147.029 90.8141C146.963 90.8208 146.898 90.8014 146.847 90.76L144.365 88.7487Z" fill="#5B548F"/>
<path d="M147.141 90.3973C147.186 90.434 147.215 90.4873 147.221 90.5453C147.228 90.6034 147.21 90.6614 147.174 90.7067C147.137 90.7519 147.084 90.7807 147.026 90.7867C146.968 90.7927 146.91 90.7754 146.864 90.7386L144.382 88.7274C144.337 88.6906 144.308 88.6373 144.302 88.5793C144.296 88.5213 144.313 88.4632 144.35 88.418C144.386 88.3727 144.44 88.3439 144.498 88.3379C144.556 88.3319 144.614 88.3492 144.659 88.386L147.141 90.3973ZM147.176 90.3546L144.694 88.3433C144.637 88.2973 144.564 88.2757 144.492 88.2832C144.419 88.2907 144.353 88.3267 144.307 88.3833C144.261 88.4399 144.24 88.5124 144.247 88.5849C144.255 88.6575 144.291 88.724 144.348 88.77L146.83 90.7813C146.886 90.8273 146.959 90.8489 147.032 90.8414C147.104 90.8339 147.171 90.7979 147.217 90.7413C147.262 90.6847 147.284 90.6122 147.276 90.5397C147.268 90.4671 147.232 90.4006 147.176 90.3546Z" fill="#5B548F"/>
<path d="M140.194 99.0133L137.712 97.002C137.606 96.9158 137.45 96.932 137.364 97.038L137.329 97.0807C137.243 97.1867 137.26 97.3426 137.366 97.4288L139.848 99.44C139.954 99.5262 140.11 99.5101 140.196 99.4041L140.231 99.3614C140.317 99.2553 140.3 99.0995 140.194 99.0133Z" fill="#5B548F"/>
<path d="M140.176 99.0346C140.222 99.0714 140.251 99.1247 140.257 99.1827C140.263 99.2407 140.246 99.2988 140.209 99.344L140.175 99.3867C140.138 99.432 140.085 99.4608 140.027 99.4668C139.969 99.4728 139.911 99.4555 139.865 99.4187L137.383 97.4074C137.338 97.3706 137.309 97.3174 137.303 97.2593C137.297 97.2013 137.314 97.1433 137.351 97.098L137.385 97.0553C137.422 97.0101 137.475 96.9813 137.533 96.9753C137.591 96.9693 137.649 96.9866 137.695 97.0234L140.176 99.0346ZM140.211 98.992L137.729 96.9807C137.673 96.9347 137.6 96.9131 137.527 96.9206C137.455 96.9281 137.388 96.9641 137.342 97.0207L137.308 97.0633C137.262 97.1199 137.241 97.1925 137.248 97.265C137.256 97.3375 137.292 97.4041 137.349 97.4501L139.831 99.4614C139.887 99.5074 139.96 99.529 140.033 99.5215C140.105 99.514 140.172 99.478 140.217 99.4214L140.252 99.3787C140.298 99.3221 140.319 99.2496 140.312 99.1771C140.304 99.1045 140.268 99.038 140.211 98.992Z" fill="#5B548F"/>
<path d="M139.675 99.6534L137.193 97.6421C137.087 97.5559 136.931 97.5721 136.845 97.6781L136.81 97.7208C136.725 97.8268 136.741 97.9827 136.847 98.0689L139.329 100.08C139.436 100.166 139.591 100.15 139.677 100.044L139.712 100.001C139.798 99.8954 139.781 99.7396 139.675 99.6534Z" fill="#5B548F"/>
<path d="M139.658 99.6747C139.703 99.7115 139.732 99.7648 139.738 99.8228C139.744 99.8809 139.727 99.9389 139.691 99.9842L139.656 100.027C139.619 100.072 139.566 100.101 139.508 100.107C139.45 100.113 139.392 100.096 139.346 100.059L136.865 98.0475C136.819 98.0107 136.79 97.9575 136.784 97.8994C136.778 97.8414 136.795 97.7834 136.832 97.7381L136.866 97.6954C136.903 97.6502 136.956 97.6214 137.014 97.6154C137.072 97.6094 137.131 97.6267 137.176 97.6635L139.658 99.6747ZM139.692 99.6321L137.211 97.6208C137.154 97.5748 137.081 97.5532 137.009 97.5607C136.936 97.5682 136.87 97.6042 136.824 97.6608L136.789 97.7034C136.743 97.76 136.722 97.8326 136.729 97.9051C136.737 97.9776 136.773 98.0442 136.83 98.0902L139.312 100.101C139.369 100.147 139.441 100.169 139.514 100.162C139.586 100.154 139.653 100.118 139.699 100.062L139.733 100.019C139.779 99.9622 139.801 99.8897 139.793 99.8172C139.785 99.7446 139.749 99.6781 139.692 99.6321Z" fill="#5B548F"/>
<path d="M132.697 105.628C132.43 105.412 133.677 103.226 136.511 99.5992L137.805 100.648C134.844 104.172 132.964 105.845 132.697 105.628Z" fill="#5B548F"/>
<path d="M137.767 100.652C136.51 102.147 135.307 103.466 134.372 104.375C132.966 105.74 132.736 105.625 132.714 105.607C132.692 105.589 132.532 105.389 133.577 103.73C134.272 102.629 135.313 101.178 136.516 99.6382L137.767 100.652ZM137.844 100.644L136.507 99.5602C134.009 102.754 132.344 105.378 132.68 105.65C133.015 105.922 135.237 103.75 137.844 100.644Z" fill="#5B548F"/>
<path d="M134.778 103.06C134.639 102.947 135.36 101.726 136.806 99.8736L137.476 100.416C135.964 102.215 134.917 103.173 134.778 103.06Z" fill="#5B548F"/>
<path d="M137.437 100.42C136.789 101.189 136.166 101.874 135.678 102.351C134.966 103.047 134.813 103.042 134.796 103.038C134.789 103.022 134.751 102.875 135.286 102.033C135.652 101.457 136.192 100.705 136.811 99.9127L137.437 100.42ZM137.514 100.412L136.8 99.8332C135.468 101.536 134.581 102.935 134.759 103.08C134.938 103.225 136.124 102.065 137.513 100.411L137.514 100.412Z" fill="#5B548F"/>
<path d="M139.687 109.95C139.374 109.696 140.507 107.73 142.326 105.372L143.619 106.42C141.689 108.688 140 110.204 139.687 109.95Z" fill="#5B548F"/>
<path d="M143.581 106.425C142.65 107.517 141.743 108.47 141.026 109.111C140.208 109.842 139.807 110.012 139.704 109.928C139.601 109.845 139.685 109.418 140.231 108.466C140.71 107.631 141.454 106.548 142.33 105.411L143.581 106.425ZM143.658 106.417L142.321 105.332C140.49 107.703 139.334 109.699 139.669 109.971C140.005 110.243 141.718 108.698 143.658 106.417Z" fill="#5B548F"/>
<path d="M148.858 108.545L167.699 85.2956C169.279 83.3458 171.722 82.2852 171.997 82.5082C172.217 82.6864 171.736 85.3468 170.161 87.2906L151.319 110.54L148.858 108.545Z" fill="#5B548F"/>
<path d="M171.98 82.5295C172.061 82.5951 172.043 83.2244 171.722 84.2468C171.514 84.906 171.032 86.1758 170.141 87.2746L151.317 110.502L148.896 108.54L167.72 85.3126C168.641 84.1762 169.764 83.4436 170.351 83.108C171.247 82.5958 171.873 82.4428 171.98 82.5295ZM172.014 82.4869C171.71 82.2407 169.255 83.3316 167.677 85.2779L148.819 108.548L151.323 110.578L170.182 87.3079C171.724 85.4051 172.272 82.696 172.014 82.4869Z" fill="#5B548F"/>
<path d="M167.106 85.9684C167.055 85.927 167.023 85.8671 167.016 85.8018C167.009 85.7365 167.028 85.6712 167.069 85.6203C167.111 85.5694 167.171 85.537 167.236 85.5302C167.301 85.5235 167.367 85.5429 167.418 85.5843L169.899 87.5956C169.95 87.637 169.983 87.6969 169.99 87.7622C169.997 87.8275 169.978 87.8927 169.936 87.9437C169.895 87.9946 169.835 88.027 169.77 88.0338C169.705 88.0405 169.639 88.021 169.588 87.9797L167.106 85.9684Z" fill="#5B548F"/>
<path d="M169.882 87.6169C169.927 87.6537 169.956 87.707 169.963 87.765C169.969 87.823 169.952 87.8811 169.915 87.9263C169.878 87.9716 169.825 88.0004 169.767 88.0064C169.709 88.0124 169.651 87.9951 169.605 87.9583L167.124 85.947C167.078 85.9103 167.049 85.857 167.043 85.799C167.037 85.7409 167.054 85.6829 167.091 85.6376C167.128 85.5924 167.181 85.5636 167.239 85.5576C167.297 85.5516 167.355 85.5689 167.4 85.6057L169.882 87.6169ZM169.917 87.5743L167.435 85.563C167.378 85.517 167.306 85.4954 167.233 85.5029C167.16 85.5104 167.094 85.5464 167.048 85.603C167.002 85.6596 166.981 85.7321 166.988 85.8046C166.996 85.8772 167.032 85.9437 167.089 85.9897L169.571 88.001C169.628 88.047 169.7 88.0686 169.773 88.0611C169.845 88.0536 169.912 88.0176 169.958 87.961C170.004 87.9044 170.025 87.8319 170.017 87.7594C170.01 87.6868 169.973 87.6203 169.917 87.5743Z" fill="#5B548F"/>
<path d="M166.518 86.6938C166.467 86.6524 166.435 86.5925 166.428 86.5272C166.421 86.462 166.44 86.3967 166.482 86.3457C166.523 86.2948 166.583 86.2624 166.648 86.2557C166.713 86.2489 166.779 86.2684 166.83 86.3098L169.311 88.321C169.363 88.3624 169.395 88.4224 169.402 88.4876C169.409 88.5529 169.39 88.6182 169.348 88.6691C169.307 88.7201 169.247 88.7525 169.182 88.7592C169.117 88.766 169.051 88.7465 169 88.7051L166.518 86.6938Z" fill="#5B548F"/>
<path d="M169.294 88.3424C169.34 88.3792 169.369 88.4325 169.375 88.4905C169.381 88.5485 169.364 88.6065 169.327 88.6518C169.29 88.6971 169.237 88.7259 169.179 88.7319C169.121 88.7379 169.063 88.7206 169.018 88.6838L166.536 86.6725C166.49 86.6357 166.461 86.5824 166.455 86.5244C166.449 86.4664 166.466 86.4084 166.503 86.3631C166.54 86.3178 166.593 86.289 166.651 86.283C166.709 86.277 166.767 86.2943 166.812 86.3311L169.294 88.3424ZM169.329 88.2997L166.847 86.2884C166.79 86.2425 166.718 86.2208 166.645 86.2283C166.573 86.2358 166.506 86.2718 166.46 86.3284C166.414 86.385 166.393 86.4575 166.401 86.5301C166.408 86.6026 166.444 86.6692 166.501 86.7152L168.983 88.7265C169.04 88.7724 169.112 88.7941 169.185 88.7866C169.257 88.7791 169.324 88.7431 169.37 88.6865C169.416 88.6299 169.437 88.5574 169.429 88.4848C169.422 88.4123 169.386 88.3457 169.329 88.2997Z" fill="#5B548F"/>
<path d="M157.354 98.0023C157.303 97.9609 157.27 97.901 157.263 97.8357C157.256 97.7705 157.276 97.7052 157.317 97.6542C157.358 97.6033 157.418 97.5709 157.483 97.5642C157.549 97.5574 157.614 97.5769 157.665 97.6183L160.147 99.6295C160.198 99.6709 160.231 99.7309 160.237 99.7961C160.244 99.8614 160.225 99.9267 160.184 99.9776C160.143 100.029 160.083 100.061 160.017 100.068C159.952 100.074 159.887 100.055 159.836 100.014L157.354 98.0023Z" fill="#5B548F"/>
<path d="M160.13 99.6509C160.175 99.6877 160.204 99.7409 160.21 99.799C160.216 99.857 160.199 99.915 160.162 99.9603C160.126 100.006 160.073 100.034 160.014 100.04C159.956 100.046 159.898 100.029 159.853 99.9923L157.371 97.981C157.326 97.9442 157.297 97.8909 157.291 97.8329C157.284 97.7749 157.302 97.7168 157.338 97.6716C157.375 97.6263 157.428 97.5975 157.486 97.5915C157.544 97.5855 157.602 97.6028 157.648 97.6396L160.13 99.6509ZM160.164 99.6082L157.682 97.5969C157.626 97.5509 157.553 97.5293 157.48 97.5368C157.408 97.5443 157.341 97.5803 157.296 97.6369C157.25 97.6935 157.228 97.766 157.236 97.8386C157.244 97.9111 157.28 97.9777 157.337 98.0237L159.818 100.035C159.875 100.081 159.948 100.103 160.02 100.095C160.093 100.088 160.159 100.052 160.205 99.995C160.251 99.9384 160.273 99.8658 160.265 99.7933C160.257 99.7208 160.221 99.6542 160.164 99.6082Z" fill="#5B548F"/>
<path d="M156.766 98.7278C156.715 98.6864 156.682 98.6264 156.675 98.5612C156.668 98.4959 156.688 98.4306 156.729 98.3797C156.77 98.3287 156.83 98.2963 156.895 98.2896C156.961 98.2828 157.026 98.3023 157.077 98.3437L159.559 100.355C159.61 100.396 159.643 100.456 159.65 100.522C159.656 100.587 159.637 100.652 159.596 100.703C159.555 100.754 159.495 100.786 159.429 100.793C159.364 100.8 159.299 100.78 159.248 100.739L156.766 98.7278Z" fill="#5B548F"/>
<path d="M159.542 100.376C159.587 100.413 159.616 100.466 159.622 100.524C159.628 100.582 159.611 100.64 159.574 100.686C159.538 100.731 159.485 100.76 159.427 100.766C159.368 100.772 159.31 100.755 159.265 100.718L156.783 98.7064C156.738 98.6696 156.709 98.6164 156.703 98.5583C156.697 98.5003 156.714 98.4423 156.75 98.397C156.787 98.3518 156.84 98.3229 156.898 98.317C156.956 98.311 157.014 98.3283 157.06 98.365L159.542 100.376ZM159.576 100.334L157.094 98.3224C157.038 98.2764 156.965 98.2548 156.893 98.2623C156.82 98.2698 156.753 98.3058 156.708 98.3623C156.662 98.4189 156.64 98.4915 156.648 98.564C156.656 98.6365 156.692 98.7031 156.749 98.7491L159.23 100.76C159.287 100.806 159.36 100.828 159.432 100.82C159.505 100.813 159.571 100.777 159.617 100.72C159.663 100.664 159.685 100.591 159.677 100.519C159.669 100.446 159.633 100.38 159.576 100.334Z" fill="#5B548F"/>
<path d="M152.595 108.992L150.113 106.981C150.006 106.895 149.85 106.911 149.765 107.017L149.73 107.06C149.644 107.166 149.661 107.322 149.767 107.408L152.249 109.419C152.355 109.505 152.511 109.489 152.597 109.383L152.631 109.34C152.717 109.234 152.701 109.079 152.595 108.992Z" fill="#5B548F"/>
<path d="M152.577 109.014C152.623 109.051 152.652 109.104 152.658 109.162C152.664 109.22 152.647 109.278 152.61 109.323L152.575 109.366C152.539 109.411 152.486 109.44 152.428 109.446C152.369 109.452 152.311 109.435 152.266 109.398L149.784 107.386C149.739 107.35 149.71 107.296 149.704 107.238C149.698 107.18 149.715 107.122 149.751 107.077L149.786 107.034C149.823 106.989 149.876 106.96 149.934 106.954C149.992 106.948 150.05 106.966 150.095 107.002L152.577 109.014ZM152.612 108.971L150.13 106.96C150.073 106.914 150.001 106.892 149.928 106.9C149.856 106.907 149.789 106.943 149.743 107L149.709 107.042C149.663 107.099 149.641 107.172 149.649 107.244C149.657 107.317 149.693 107.383 149.75 107.429L152.231 109.44C152.288 109.486 152.361 109.508 152.433 109.501C152.506 109.493 152.572 109.457 152.618 109.4L152.653 109.358C152.699 109.301 152.72 109.229 152.712 109.156C152.705 109.084 152.669 109.017 152.612 108.971Z" fill="#5B548F"/>
<path d="M152.076 109.632L149.594 107.621C149.488 107.535 149.332 107.551 149.246 107.657L149.211 107.7C149.125 107.806 149.142 107.962 149.248 108.048L151.73 110.059C151.836 110.145 151.992 110.129 152.078 110.023L152.113 109.981C152.199 109.875 152.182 109.719 152.076 109.632Z" fill="#5B548F"/>
<path d="M152.058 109.654C152.104 109.691 152.133 109.744 152.139 109.802C152.145 109.86 152.128 109.918 152.091 109.963L152.057 110.006C152.02 110.051 151.967 110.08 151.909 110.086C151.851 110.092 151.793 110.075 151.747 110.038L149.265 108.027C149.22 107.99 149.191 107.937 149.185 107.879C149.179 107.821 149.196 107.762 149.233 107.717L149.267 107.675C149.304 107.629 149.357 107.6 149.415 107.594C149.473 107.588 149.531 107.606 149.577 107.643L152.058 109.654ZM152.093 109.611L149.611 107.6C149.554 107.554 149.482 107.532 149.409 107.54C149.337 107.547 149.27 107.583 149.224 107.64L149.19 107.683C149.144 107.739 149.122 107.812 149.13 107.884C149.138 107.957 149.174 108.023 149.231 108.069L151.713 110.081C151.769 110.127 151.842 110.148 151.915 110.141C151.987 110.133 152.054 110.097 152.099 110.041L152.134 109.998C152.18 109.941 152.201 109.869 152.194 109.796C152.186 109.724 152.15 109.657 152.093 109.611Z" fill="#5B548F"/>
<path d="M145.098 115.607C144.831 115.391 146.077 113.205 148.912 109.578L150.206 110.627C147.244 114.151 145.365 115.824 145.098 115.607Z" fill="#5B548F"/>
<path d="M150.168 110.631C148.911 112.126 147.708 113.445 146.773 114.354C145.366 115.719 145.137 115.604 145.115 115.586C145.093 115.568 144.932 115.368 145.978 113.709C146.672 112.608 147.714 111.157 148.916 109.617L150.168 110.631ZM150.245 110.623L148.907 109.539C146.409 112.733 144.745 115.357 145.08 115.629C145.416 115.901 147.638 113.729 150.245 110.623Z" fill="#5B548F"/>
<path d="M147.179 113.039C147.04 112.926 147.761 111.705 149.207 109.853L149.877 110.395C148.364 112.194 147.318 113.152 147.179 113.039Z" fill="#5B548F"/>
<path d="M149.837 110.399C149.19 111.168 148.566 111.853 148.078 112.33C147.367 113.026 147.214 113.021 147.197 113.017C147.19 113.001 147.152 112.854 147.687 112.012C148.053 111.436 148.593 110.684 149.211 109.892L149.837 110.399ZM149.915 110.391L149.201 109.812C147.869 111.515 146.981 112.914 147.16 113.059C147.339 113.204 148.525 112.044 149.914 110.39L149.915 110.391Z" fill="#5B548F"/>
<path d="M161.276 76.5411C161.383 76.6272 161.538 76.6111 161.624 76.5052C161.71 76.3993 161.693 76.2437 161.587 76.1576C161.481 76.0716 161.325 76.0876 161.239 76.1935C161.154 76.2995 161.17 76.4551 161.276 76.5411Z" fill="#5B548F"/>
<path d="M161.57 76.1789C161.604 76.2063 161.629 76.243 161.642 76.2845C161.655 76.3261 161.655 76.3704 161.643 76.4121C161.63 76.4537 161.606 76.4907 161.572 76.5184C161.539 76.5461 161.498 76.5633 161.455 76.5678C161.412 76.5723 161.368 76.5638 161.33 76.5435C161.291 76.5232 161.26 76.492 161.239 76.4538C161.218 76.4156 161.209 76.3721 161.213 76.3288C161.217 76.2856 161.234 76.2445 161.261 76.2108C161.298 76.1656 161.351 76.1368 161.409 76.1308C161.467 76.1249 161.525 76.1421 161.57 76.1789ZM161.604 76.1362C161.562 76.102 161.511 76.081 161.457 76.076C161.403 76.0709 161.348 76.082 161.3 76.1078C161.253 76.1336 161.214 76.1731 161.189 76.2211C161.163 76.2691 161.153 76.3235 161.159 76.3775C161.164 76.4316 161.186 76.4827 161.221 76.5245C161.256 76.5663 161.302 76.5969 161.354 76.6124C161.406 76.6279 161.462 76.6277 161.513 76.6117C161.565 76.5956 161.611 76.5646 161.645 76.5225C161.691 76.4659 161.713 76.3935 161.705 76.3211C161.697 76.2487 161.661 76.1822 161.604 76.1362Z" fill="#5B548F"/>
<path d="M161.148 76.4371C161.254 76.5232 161.41 76.5071 161.496 76.4012C161.582 76.2953 161.565 76.1396 161.459 76.0536C161.353 75.9675 161.197 75.9836 161.111 76.0895C161.025 76.1954 161.042 76.351 161.148 76.4371Z" fill="#5B548F"/>
<path d="M161.442 76.0748C161.475 76.1022 161.5 76.139 161.513 76.1805C161.526 76.222 161.526 76.2664 161.514 76.308C161.502 76.3496 161.477 76.3867 161.444 76.4144C161.411 76.4421 161.37 76.4593 161.327 76.4638C161.283 76.4682 161.24 76.4598 161.201 76.4395C161.163 76.4192 161.131 76.388 161.11 76.3497C161.09 76.3115 161.081 76.2681 161.085 76.2248C161.089 76.1816 161.105 76.1405 161.133 76.1068C161.169 76.0616 161.222 76.0328 161.28 76.0268C161.338 76.0208 161.396 76.0381 161.442 76.0748ZM161.476 76.0322C161.434 75.998 161.382 75.977 161.328 75.9719C161.274 75.9669 161.22 75.978 161.172 76.0038C161.124 76.0296 161.085 76.069 161.06 76.117C161.035 76.165 161.025 76.2195 161.03 76.2735C161.036 76.3275 161.058 76.3787 161.092 76.4205C161.127 76.4623 161.174 76.4929 161.226 76.5084C161.278 76.5239 161.333 76.5236 161.385 76.5076C161.437 76.4916 161.483 76.4606 161.517 76.4184C161.563 76.3619 161.584 76.2895 161.577 76.217C161.569 76.1446 161.533 76.0781 161.476 76.0322Z" fill="#5B548F"/>
<path d="M142.503 97.7385L160.185 75.92C162.167 73.4748 165.104 72.1409 166.677 71.5659C168.894 70.7518 170.803 70.5464 171.195 70.864C171.494 71.1068 171.705 72.9394 171.381 75.3748C171.155 77.0689 170.483 80.2706 168.529 82.6821L150.847 104.501L142.503 97.7385Z" fill="#5B548F"/>
<path d="M171.177 70.8854C171.463 71.1167 171.674 72.9795 171.354 75.371C171.128 77.0623 170.457 80.2588 168.508 82.6647L150.843 104.462L142.542 97.7345L160.206 75.9373C162.184 73.4972 165.116 72.1663 166.689 71.5893C168.895 70.7807 170.792 70.5733 171.177 70.8854ZM171.212 70.8427C170.399 70.1838 163.595 71.669 160.164 75.9026L142.464 97.7425L150.851 104.539L168.55 82.6994C171.981 78.4658 171.854 71.3629 171.212 70.8427Z" fill="#5B548F"/>
<path d="M143.658 100.513L154.578 87.0375C156.698 84.5088 160.464 83.1656 161.009 83.6074C161.346 83.8807 161.361 84.9982 161.045 86.3234C160.671 87.8936 159.92 89.455 158.986 90.6077L148.065 104.084L143.658 100.513Z" fill="#5B548F"/>
<path d="M160.992 83.6288C161.321 83.8954 161.332 85.0016 161.018 86.3181C160.644 87.8843 159.895 89.442 158.963 90.592L148.06 104.045L143.696 100.509L154.599 87.0553C155.864 85.5468 157.529 84.6344 158.41 84.2252C159.778 83.5873 160.761 83.4438 160.991 83.63L160.992 83.6288ZM161.025 83.5874C160.469 83.1366 156.699 84.4646 154.556 87.0215L143.619 100.517L148.069 104.123L159.007 90.6266C161.133 88.0035 161.711 84.1409 161.026 83.5861L161.025 83.5874Z" fill="#5B548F"/>
<path d="M140.376 98.4498C138.864 97.2247 136.924 95.6422 134.609 93.7451C136.943 90.885 140.073 91.0871 143.385 91.3016C146.747 91.519 150.215 91.7432 153.151 88.7987L143.381 100.854C143.271 100.772 142.66 100.301 140.376 98.4498Z" fill="#5B548F"/>
<path d="M152.853 89.1227L143.377 100.815C143.22 100.695 142.563 100.184 140.394 98.4272C138.887 97.2059 136.954 95.6293 134.649 93.7402C136.973 90.9128 140.087 91.1145 143.384 91.3274C146.631 91.5388 149.978 91.7556 152.853 89.1227ZM153.864 87.9625C147.985 95.217 139.481 87.6894 134.57 93.7491C137.198 95.9017 139.053 97.4128 140.359 98.4711C142.969 100.586 143.385 100.893 143.385 100.893L153.864 87.9625Z" fill="#5B548F"/>
<path d="M150.485 106.638C148.439 104.98 147.901 104.521 147.799 104.434L157.562 92.3736C155.292 95.8562 156.232 99.2017 157.143 102.446C158.041 105.641 158.889 108.66 156.576 111.537C154.084 109.543 152.035 107.895 150.485 106.639L150.485 106.638Z" fill="#5B548F"/>
<path d="M157.307 92.7326C155.33 96.0904 156.236 99.3189 157.117 102.453C158.012 105.635 158.854 108.639 156.571 111.499C154.089 109.511 152.047 107.869 150.501 106.616C148.565 105.048 147.98 104.553 147.837 104.431L157.307 92.733L157.307 92.7326ZM159.508 89.9293L147.76 104.438C147.76 104.438 148.116 104.756 150.466 106.66C151.782 107.727 153.722 109.29 156.579 111.577C161.488 105.513 152.357 98.7604 158.232 91.5024C159.127 90.3976 159.507 89.929 159.507 89.929L159.508 89.9293Z" fill="#5B548F"/>
<path d="M141.317 101.126L143.341 98.6294C143.611 98.296 144.004 98.0838 144.432 98.0396C144.86 97.9954 145.288 98.1227 145.623 98.3936L149.389 101.445C149.723 101.717 149.936 102.11 149.982 102.537C150.027 102.965 149.901 103.393 149.631 103.727L147.607 106.223L141.317 101.126Z" fill="#5B548F"/>
<path d="M149.371 101.466C149.7 101.733 149.91 102.119 149.955 102.54C150 102.961 149.875 103.381 149.609 103.71L147.603 106.185L141.356 101.122L143.362 98.6468C143.628 98.3186 144.014 98.1097 144.435 98.0663C144.855 98.0228 145.277 98.1482 145.606 98.4149L149.371 101.466ZM149.406 101.424L145.64 98.3722C145.3 98.0963 144.864 97.9666 144.429 98.0116C143.993 98.0565 143.594 98.2726 143.319 98.6121L141.279 101.13L147.612 106.262L149.652 103.744C149.927 103.405 150.056 102.97 150.01 102.534C149.963 102.099 149.746 101.7 149.406 101.424Z" fill="#5B548F"/>
<path d="M143.338 105.062C143.231 104.974 143.162 104.848 143.148 104.71C143.133 104.572 143.174 104.434 143.261 104.327L147.895 98.6084C147.982 98.5009 148.108 98.4325 148.246 98.4183C148.384 98.404 148.522 98.4451 148.63 98.5325C148.738 98.6198 148.806 98.7463 148.821 98.8842C148.836 99.022 148.795 99.1598 148.708 99.2673L144.074 104.986C143.986 105.093 143.86 105.161 143.722 105.176C143.584 105.19 143.446 105.149 143.338 105.062Z" fill="#5B548F"/>
<path d="M148.612 98.5538C148.715 98.6366 148.78 98.7564 148.794 98.887C148.807 99.0175 148.769 99.1481 148.686 99.25L144.052 104.968C143.97 105.07 143.85 105.135 143.719 105.148C143.589 105.162 143.458 105.123 143.356 105.04C143.254 104.957 143.189 104.838 143.175 104.707C143.161 104.576 143.199 104.446 143.282 104.344L147.916 98.6258C147.999 98.5239 148.118 98.4591 148.249 98.4456C148.38 98.4321 148.51 98.471 148.612 98.5538ZM148.647 98.5111C148.534 98.4192 148.388 98.3759 148.243 98.3909C148.098 98.4059 147.965 98.4779 147.873 98.5911L143.239 104.309C143.147 104.423 143.105 104.568 143.12 104.713C143.135 104.858 143.208 104.991 143.321 105.083C143.435 105.175 143.58 105.218 143.725 105.203C143.87 105.188 144.003 105.116 144.095 105.003L148.729 99.2846C148.821 99.1715 148.864 99.0264 148.848 98.8813C148.833 98.7363 148.761 98.6031 148.647 98.5111Z" fill="#5B548F"/>
<path d="M158.725 87.943C158.686 87.6413 158.532 87.366 158.296 87.1742C158.059 86.9824 157.758 86.8889 157.454 86.9131L157.403 86.4207C157.836 86.3832 158.268 86.5157 158.607 86.7901C158.945 87.0646 159.165 87.4596 159.218 87.8917L158.725 87.943Z" fill="#5B548F"/>
<path d="M158.591 86.8093C158.918 87.0724 159.132 87.4503 159.189 87.8654L158.751 87.9107C158.705 87.6123 158.55 87.3413 158.315 87.151C158.08 86.9607 157.783 86.8648 157.482 86.8821L157.434 86.4436C157.852 86.4134 158.266 86.5441 158.591 86.8089L158.591 86.8093ZM158.625 86.7663C158.452 86.6245 158.251 86.5186 158.037 86.4546C157.822 86.3906 157.596 86.3699 157.373 86.3936L157.431 86.9405C157.582 86.9249 157.735 86.9391 157.88 86.9825C158.026 87.0258 158.162 87.0973 158.28 87.1929C158.398 87.2886 158.496 87.4065 158.568 87.5399C158.641 87.6733 158.686 87.8196 158.702 87.9704L159.249 87.9139C159.226 87.691 159.159 87.4749 159.052 87.2779C158.945 87.0809 158.8 86.907 158.625 86.7663Z" fill="#5B548F"/>
<path d="M152.232 94.699C152.35 94.7947 152.523 94.7768 152.619 94.6591C152.714 94.5414 152.696 94.3685 152.578 94.2729C152.46 94.1773 152.287 94.1952 152.191 94.3128C152.096 94.4305 152.114 94.6034 152.232 94.699Z" fill="#5B548F"/>
<path d="M152.786 94.0163C152.904 94.1119 153.076 94.094 153.172 93.9763C153.267 93.8587 153.249 93.6858 153.131 93.5901C153.013 93.4945 152.84 93.5124 152.745 93.6301C152.649 93.7477 152.668 93.9206 152.786 94.0163Z" fill="#5B548F"/>
<path d="M153.339 93.3335C153.457 93.4291 153.63 93.4112 153.725 93.2936C153.821 93.1759 153.802 93.003 153.684 92.9074C153.566 92.8117 153.393 92.8296 153.298 92.9473C153.203 93.065 153.221 93.2379 153.339 93.3335Z" fill="#5B548F"/>
<path d="M153.892 92.6507C154.01 92.7463 154.183 92.7285 154.279 92.6108C154.374 92.4931 154.356 92.3202 154.238 92.2246C154.12 92.129 153.947 92.1468 153.851 92.2645C153.756 92.3822 153.774 92.5551 153.892 92.6507Z" fill="#5B548F"/>
<path d="M154.446 91.9679C154.564 92.0636 154.737 92.0457 154.832 91.928C154.927 91.8103 154.909 91.6374 154.791 91.5418C154.673 91.4462 154.5 91.464 154.405 91.5817C154.309 91.6994 154.328 91.8723 154.446 91.9679Z" fill="#5B548F"/>
<path d="M154.999 91.2852C155.117 91.3808 155.29 91.3629 155.385 91.2452C155.481 91.1276 155.462 90.9546 155.344 90.859C155.226 90.7634 155.053 90.7813 154.958 90.8989C154.863 91.0166 154.881 91.1895 154.999 91.2852Z" fill="#5B548F"/>
<path d="M158.311 80.1123C158.429 80.2079 158.602 80.19 158.698 80.0724C158.793 79.9547 158.775 79.7818 158.657 79.6861C158.539 79.5905 158.366 79.6084 158.27 79.7261C158.175 79.8437 158.193 80.0167 158.311 80.1123Z" fill="#5B548F"/>
<path d="M158.865 79.4295C158.983 79.5251 159.156 79.5073 159.251 79.3896C159.346 79.2719 159.328 79.099 159.21 79.0034C159.092 78.9077 158.919 78.9256 158.824 79.0433C158.728 79.161 158.747 79.3339 158.865 79.4295Z" fill="#5B548F"/>
<path d="M159.418 78.7467C159.536 78.8424 159.709 78.8245 159.804 78.7068C159.9 78.5891 159.881 78.4162 159.763 78.3206C159.645 78.225 159.472 78.2429 159.377 78.3605C159.282 78.4782 159.3 78.6511 159.418 78.7467Z" fill="#5B548F"/>
<path d="M159.971 78.064C160.089 78.1596 160.262 78.1417 160.358 78.024C160.453 77.9064 160.435 77.7334 160.317 77.6378C160.199 77.5422 160.026 77.5601 159.93 77.6777C159.835 77.7954 159.853 77.9683 159.971 78.064Z" fill="#5B548F"/>
<path d="M160.525 77.3812C160.643 77.4768 160.816 77.4589 160.911 77.3413C161.006 77.2236 160.988 77.0507 160.87 76.955C160.752 76.8594 160.579 76.8773 160.484 76.995C160.388 77.1126 160.407 77.2856 160.525 77.3812Z" fill="#5B548F"/>
<path d="M161.078 76.6984C161.196 76.794 161.369 76.7761 161.464 76.6585C161.56 76.5408 161.541 76.3679 161.423 76.2723C161.305 76.1766 161.132 76.1945 161.037 76.3122C160.942 76.4299 160.96 76.6028 161.078 76.6984Z" fill="#5B548F"/>
</g>
<defs>
<linearGradient id="paint0_linear" x1="187.262" y1="0.999954" x2="187.262" y2="187.443" gradientUnits="userSpaceOnUse">
<stop stop-color="#180E69"/>
<stop offset="1" stop-color="#1E1C33" stop-opacity="0"/>
</linearGradient>
<linearGradient id="paint1_linear" x1="187.262" y1="0.999954" x2="187.262" y2="187.443" gradientUnits="userSpaceOnUse">
<stop stop-color="#180E69"/>
<stop offset="1" stop-color="#1E1C33" stop-opacity="0"/>
</linearGradient>
<linearGradient id="paint2_linear" x1="258.999" y1="-50.0001" x2="121.999" y2="146" gradientUnits="userSpaceOnUse">
<stop stop-color="#171050"/>
<stop offset="0.156532" stop-color="#171050"/>
<stop offset="1" stop-color="#3C347A" stop-opacity="0"/>
</linearGradient>
<linearGradient id="paint3_linear" x1="258.999" y1="-50.0001" x2="121.999" y2="146" gradientUnits="userSpaceOnUse">
<stop stop-color="#171050"/>
<stop offset="0.156532" stop-color="#171050"/>
<stop offset="1" stop-color="#3C347A" stop-opacity="0"/>
</linearGradient>
<linearGradient id="paint4_linear" x1="179.999" y1="121.132" x2="179.999" y2="311.5" gradientUnits="userSpaceOnUse">
<stop stop-color="#ACA2FF"/>
<stop offset="0.359375" stop-color="#503CE9"/>
</linearGradient>
<linearGradient id="paint5_linear" x1="177.339" y1="131.814" x2="177.339" y2="312.924" gradientUnits="userSpaceOnUse">
<stop stop-color="#8577F4"/>
<stop offset="0.744792" stop-color="#503CE9"/>
</linearGradient>
<linearGradient id="paint6_linear" x1="184.999" y1="184.682" x2="184.999" y2="313" gradientUnits="userSpaceOnUse">
<stop stop-color="#8577F4"/>
<stop offset="0.0833333" stop-color="#9184FB"/>
<stop offset="0.744792" stop-color="#503CE9"/>
</linearGradient>
<linearGradient id="paint7_linear" x1="169.999" y1="7.99998" x2="169.999" y2="15" gradientUnits="userSpaceOnUse">
<stop stop-color="#F7FFD8"/>
<stop offset="1" stop-color="#D3D3C7" stop-opacity="0"/>
</linearGradient>
<linearGradient id="paint8_linear" x1="130.999" y1="84" x2="130.999" y2="91" gradientUnits="userSpaceOnUse">
<stop stop-color="#F7FFD8"/>
<stop offset="1" stop-color="#D3D3C7" stop-opacity="0"/>
</linearGradient>
<linearGradient id="paint9_linear" x1="185.999" y1="132" x2="185.999" y2="139" gradientUnits="userSpaceOnUse">
<stop stop-color="#F7FFD8"/>
<stop offset="1" stop-color="#D3D3C7" stop-opacity="0"/>
</linearGradient>
<linearGradient id="paint10_linear" x1="195.999" y1="94" x2="195.999" y2="101" gradientUnits="userSpaceOnUse">
<stop stop-color="#F7FFD8"/>
<stop offset="1" stop-color="#D3D3C7" stop-opacity="0"/>
</linearGradient>
<linearGradient id="paint11_linear" x1="286.999" y1="85" x2="286.999" y2="92" gradientUnits="userSpaceOnUse">
<stop stop-color="#F7FFD8"/>
<stop offset="1" stop-color="#D3D3C7" stop-opacity="0"/>
</linearGradient>
<linearGradient id="paint12_linear" x1="208.999" y1="116" x2="208.999" y2="123" gradientUnits="userSpaceOnUse">
<stop stop-color="#F7FFD8"/>
<stop offset="1" stop-color="#D3D3C7" stop-opacity="0"/>
</linearGradient>
<linearGradient id="paint13_linear" x1="258.999" y1="36" x2="258.999" y2="43" gradientUnits="userSpaceOnUse">
<stop stop-color="#F7FFD8"/>
<stop offset="1" stop-color="#D3D3C7" stop-opacity="0"/>
</linearGradient>
<linearGradient id="paint14_linear" x1="36.999" y1="114" x2="36.999" y2="121" gradientUnits="userSpaceOnUse">
<stop stop-color="#F7FFD8"/>
<stop offset="1" stop-color="#D3D3C7" stop-opacity="0"/>
</linearGradient>
<linearGradient id="paint15_linear" x1="71.999" y1="77" x2="71.999" y2="84" gradientUnits="userSpaceOnUse">
<stop stop-color="#F7FFD8"/>
<stop offset="1" stop-color="#D3D3C7" stop-opacity="0"/>
</linearGradient>
<linearGradient id="paint16_linear" x1="278.999" y1="106" x2="278.999" y2="113" gradientUnits="userSpaceOnUse">
<stop stop-color="#F7FFD8"/>
<stop offset="1" stop-color="#D3D3C7" stop-opacity="0"/>
</linearGradient>
<linearGradient id="paint17_linear" x1="109.999" y1="33" x2="109.999" y2="40" gradientUnits="userSpaceOnUse">
<stop stop-color="#F7FFD8"/>
<stop offset="1" stop-color="#D3D3C7" stop-opacity="0"/>
</linearGradient>
<linearGradient id="paint18_linear" x1="233.637" y1="28.1381" x2="234.188" y2="88.7791" gradientUnits="userSpaceOnUse">
<stop stop-color="#6C5BEF"/>
<stop offset="0.364583" stop-color="#30277A"/>
<stop offset="0.734375" stop-color="#0E0840"/>
</linearGradient>
<clipPath id="clip0">
<rect width="28.3232" height="51.3024" fill="white" transform="translate(160.301 62) rotate(39.022)"/>
</clipPath>
</defs>
</svg>
